<?xml version="1.0" encoding="UTF-8"?>
<svg version="1.1" xmlns="http://www.w3.org/2000/svg" width="512" height="512">
<path d="M0 0 C0.98870087 0.00081573 0.98870087 0.00081573 1.99737549 0.00164795 C12.97851814 0.04318906 22.9941372 0.99005212 33.4375 4.375 C34.1190918 4.58930664 34.80068359 4.80361328 35.50292969 5.02441406 C49.73101879 9.60701941 62.12362402 16.56213576 73.4375 26.375 C74.24574219 27.03886719 75.05398438 27.70273438 75.88671875 28.38671875 C96.07609101 45.53342267 109.25124274 71.13485723 112.4375 97.375 C112.74917763 102.2327634 112.8193035 107.07052175 112.8125 111.9375 C112.81195618 112.59663391 112.81141235 113.25576782 112.81085205 113.93487549 C112.76931094 124.91601814 111.82244788 134.9316372 108.4375 145.375 C108.22319336 146.0565918 108.00888672 146.73818359 107.78808594 147.44042969 C103.20548059 161.66851879 96.25036424 174.06112402 86.4375 185.375 C85.77363281 186.18324219 85.10976563 186.99148438 84.42578125 187.82421875 C67.27907733 208.01359101 41.67764277 221.18874274 15.4375 224.375 C10.5797366 224.68667763 5.74197825 224.7568035 0.875 224.75 C-0.11370087 224.74918427 -0.11370087 224.74918427 -1.12237549 224.74835205 C-12.10351814 224.70681094 -22.1191372 223.75994788 -32.5625 220.375 C-33.2440918 220.16069336 -33.92568359 219.94638672 -34.62792969 219.72558594 C-62.74489813 210.66962845 -85.82266189 191.03287991 -99.75 165.02734375 C-102.97790757 158.69291708 -105.4323634 152.14979535 -107.5625 145.375 C-107.88009277 144.39515137 -107.88009277 144.39515137 -108.20410156 143.39550781 C-114.44200838 123.33732568 -114.02703334 99.31961048 -107.5625 79.375 C-107.24104004 78.3526123 -107.24104004 78.3526123 -106.91308594 77.30957031 C-102.33048059 63.08148121 -95.37536424 50.68887598 -85.5625 39.375 C-84.89863281 38.56675781 -84.23476562 37.75851563 -83.55078125 36.92578125 C-62.77473431 12.46304206 -31.6910011 -0.04430055 0 0 Z M-57.5625 57.375 C-73.74365275 74.21436913 -79.13201323 95.52934883 -78.83203125 118.2734375 C-78.3245394 134.58817535 -71.19566977 150.99313918 -60.5625 163.375 C-60.06621094 164.01308594 -59.56992188 164.65117187 -59.05859375 165.30859375 C-47.85625678 179.15630186 -29.22706374 189.09243702 -11.5625 191.375 C12.80708263 193.34648155 34.52226578 187.86593466 53.47265625 172.05859375 C67.38668109 159.4644764 78.28104172 140.92272158 79.61450195 121.84228516 C80.13034879 99.29710674 76.56932272 78.99534529 61.4375 61.375 C60.94121094 60.73691406 60.44492187 60.09882813 59.93359375 59.44140625 C48.42214758 45.21159448 30.36623416 36.10479436 12.4375 33.375 C11.49003906 33.22289062 10.54257812 33.07078125 9.56640625 32.9140625 C-15.66602784 29.83276119 -39.65955213 40.05743462 -57.5625 57.375 Z " fill="#000000" transform="translate(255.5625,143.625)"/>
<path d="M0 0 C3.99204667 2.5801228 6.32701532 5.50389336 7.79296875 10.07421875 C8.71891223 16.26451507 8.17099204 20.72934482 4.69238281 25.98681641 C0.6459497 30.43373197 -4.84828473 32.99917693 -10.08203125 35.82421875 C-11.25361807 36.47473981 -12.42420056 37.12707309 -13.59375 37.78125 C-15.82183659 39.02133933 -18.05574426 40.25104447 -20.29614258 41.46875 C-22.62660918 42.75409332 -24.88647298 44.09703026 -27.1484375 45.49609375 C-32.11978351 48.06113051 -36.75373292 47.81750559 -42.20703125 47.07421875 C-47.11327839 44.79631829 -49.72378915 41.85675908 -52.20703125 37.07421875 C-53.68396296 30.9695677 -53.37658528 26.55164835 -50.20703125 21.07421875 C-45.72134016 16.28443917 -40.19515996 13.12714267 -34.45703125 10.07421875 C-32.85521875 9.21270425 -31.25365527 8.35072657 -29.65234375 7.48828125 C-28.88567383 7.07739258 -28.11900391 6.66650391 -27.32910156 6.24316406 C-25.52530389 5.24953967 -23.76308816 4.18102168 -22.01171875 3.09765625 C-15.10060987 -1.1537839 -7.85216953 -3.29374191 0 0 Z " fill="#000000" transform="translate(112.20703125,328.92578125)"/>
<path d="M0 0 C6.8809757 5.98345713 11.10589205 15.09096824 15.6875 22.875 C16.27208984 23.85855469 16.85667969 24.84210938 17.45898438 25.85546875 C18.01521484 26.79777344 18.57144531 27.74007812 19.14453125 28.7109375 C19.89633667 29.98396729 19.89633667 29.98396729 20.66333008 31.28271484 C23.64874841 36.74585594 23.43801457 42.42748571 22.875 48.5 C20.89534794 52.93442062 18.3035114 55.57910664 13.92578125 57.80078125 C9.24748543 59.39585735 4.68519943 59.57778176 0.04931641 57.79980469 C-7.12485608 54.11581736 -10.17748012 47.47512225 -13.875 40.625 C-14.52552106 39.45341318 -15.17785434 38.28283069 -15.83203125 37.11328125 C-17.07212058 34.88519466 -18.30182572 32.65128699 -19.51953125 30.41088867 C-20.80487457 28.08042207 -22.14781151 25.82055827 -23.546875 23.55859375 C-26.11191176 18.58724774 -25.86828684 13.95329833 -25.125 8.5 C-22.59533812 3.0514975 -18.7322274 0.06313187 -13.25 -2.3125 C-8.32497295 -2.74706121 -4.4021068 -2.11301126 0 0 Z " fill="#000000" transform="translate(161.125,61.5)"/>
<path d="M0 0 C7.17417248 3.68398733 10.22679653 10.32468244 13.92431641 17.17480469 C14.57483747 18.3463915 15.22717074 19.516974 15.88134766 20.68652344 C17.12143699 22.91461002 18.35114212 25.1485177 19.56884766 27.38891602 C20.85419098 29.71938262 22.19712792 31.97924642 23.59619141 34.24121094 C26.16122817 39.21255694 25.91760324 43.84650636 25.17431641 49.29980469 C22.89641595 54.20605183 19.95685674 56.81656259 15.17431641 59.29980469 C9.06966536 60.77673639 4.65174601 60.46935872 -0.82568359 57.29980469 C-5.61555136 52.814031 -8.7724678 47.28787111 -11.82568359 41.54980469 C-12.68726509 39.94933013 -13.54924304 38.34906893 -14.41162109 36.74902344 C-14.82250977 35.98251465 -15.23339844 35.21600586 -15.65673828 34.42626953 C-16.65425749 32.61165125 -17.72151861 30.83566326 -18.80224609 29.06933594 C-22.62934134 22.7845563 -24.14236832 17.66178974 -22.82568359 10.29980469 C-21.47319572 6.03669963 -19.2423259 3.62478569 -15.70068359 0.86230469 C-10.68584624 -1.60752956 -5.23123212 -2.00630833 0 0 Z " fill="#000000" transform="translate(350.82568359375,392.7001953125)"/>
<path d="M0 0 C4.47673413 2.55577824 7.18180868 5.01741288 8.68359375 10.0859375 C9.94167641 18.19214023 8.07898963 23.40129837 3.81445312 30.2109375 C2.41598857 32.5296352 1.12261856 34.89728099 -0.17578125 37.2734375 C-1.22243506 39.16939295 -2.26931245 41.065225 -3.31640625 42.9609375 C-3.81430664 43.8772998 -4.31220703 44.79366211 -4.82519531 45.73779297 C-8.36159029 52.0289632 -11.53894218 56.27932425 -18.19140625 59.4609375 C-23.61943579 60.54654341 -27.65223673 59.95002552 -32.56640625 57.3984375 C-36.40885985 54.16728334 -38.91382317 51.69427202 -39.70581055 46.56298828 C-40.08105417 37.64552215 -37.31921776 31.97265573 -32.75390625 24.4609375 C-32.14482422 23.40648437 -31.53574219 22.35203125 -30.90820312 21.265625 C-15.00911712 -5.9226533 -15.00911712 -5.9226533 0 0 Z " fill="#000000" transform="translate(175.31640625,392.9140625)"/>
<path d="M0 0 C1.42033554 0.8670653 2.83965765 1.73591373 4.25 2.61914062 C6.5686977 4.01760518 8.93634349 5.31097519 11.3125 6.609375 C13.20845545 7.65602881 15.1042875 8.7029062 17 9.75 C17.9163623 10.24790039 18.83272461 10.74580078 19.77685547 11.25878906 C26.0680257 14.79518404 30.31838675 17.97253593 33.5 24.625 C34.58560591 30.05302954 33.98908802 34.08583048 31.4375 39 C28.20665173 42.84208984 25.7335834 45.34475373 20.60424805 46.14160156 C11.65476645 46.52367877 5.96785996 43.71431809 -1.5625 39.125 C-2.62533203 38.50753906 -3.68816406 37.89007813 -4.78320312 37.25390625 C-24.853943 25.4912888 -24.853943 25.4912888 -26.875 18.75 C-27.78556752 13.40041581 -27.453091 9.07133981 -24.75 4.3125 C-18.80138662 -3.8668434 -8.59937316 -4.63463831 0 0 Z " fill="#000000" transform="translate(418.875,330.25)"/>
<path d="M0 0 C4.90624714 2.27790046 7.5167579 5.21745967 10 10 C11.47693171 16.10465105 11.16955403 20.5225704 8 26 C3.51422632 30.78986777 -2.01193358 33.9467842 -7.75 37 C-9.35047456 37.86158149 -10.95073576 38.72355944 -12.55078125 39.5859375 C-13.31729004 39.99682617 -14.08379883 40.40771484 -14.87353516 40.83105469 C-16.68815344 41.8285739 -18.46414143 42.89583502 -20.23046875 43.9765625 C-26.51524839 47.80365775 -31.63801495 49.31668473 -39 48 C-43.26310505 46.64751213 -45.675019 44.41664231 -48.4375 40.875 C-50.60952962 36.46483552 -51.10299476 31.77507672 -50 27 C-46.7889937 18.62764815 -39.63931777 15.30603555 -32.125 11.25 C-30.95341318 10.59947894 -29.78283069 9.94714566 -28.61328125 9.29296875 C-26.38519466 8.05287942 -24.15128699 6.82317428 -21.91088867 5.60546875 C-19.58042207 4.32012543 -17.32055827 2.97718849 -15.05859375 1.578125 C-10.08724774 -0.98691176 -5.45329833 -0.74328684 0 0 Z " fill="#000000" transform="translate(442,136)"/>
<path d="M0 0 C4.52697714 1.74243023 8.55256198 4.10499486 12.6875 6.625 C13.75033203 7.24246094 14.81316406 7.85992187 15.90820312 8.49609375 C35.978943 20.2587112 35.978943 20.2587112 38 27 C38.91056752 32.34958419 38.578091 36.67866019 35.875 41.4375 C33.33315662 44.93253465 31.23522063 46.74511981 27 48 C18.89379727 49.25808266 13.68463913 47.39539588 6.875 43.13085938 C4.5563023 41.73239482 2.18865651 40.43902481 -0.1875 39.140625 C-2.08345545 38.09397119 -3.9792875 37.0470938 -5.875 36 C-6.7913623 35.50209961 -7.70772461 35.00419922 -8.65185547 34.49121094 C-14.9430257 30.95481596 -19.19338675 27.77746407 -22.375 21.125 C-23.46060591 15.69697046 -22.86408802 11.66416952 -20.3125 6.75 C-14.41870212 -0.25884072 -8.83463486 -1.2373908 0 0 Z " fill="#000000" transform="translate(82,136)"/>
<path d="M0 0 C3.84208984 3.23084827 6.34475373 5.7039166 7.14160156 10.83325195 C7.52367877 19.78273355 4.71431809 25.46964004 0.125 33 C-0.49246094 34.06283203 -1.10992187 35.12566406 -1.74609375 36.22070312 C-13.5087112 56.291443 -13.5087112 56.291443 -20.25 58.3125 C-25.59958419 59.22306752 -29.92866019 58.890591 -34.6875 56.1875 C-38.18253465 53.64565662 -39.99511981 51.54772063 -41.25 47.3125 C-42.50808266 39.20629727 -40.64539588 33.99713913 -36.38085938 27.1875 C-34.98239482 24.8688023 -33.68902481 22.50115651 -32.390625 20.125 C-31.34397119 18.22904455 -30.2970938 16.3332125 -29.25 14.4375 C-28.50314941 13.06295654 -28.50314941 13.06295654 -27.74121094 11.66064453 C-24.20481596 5.3694743 -21.02746407 1.11911325 -14.375 -2.0625 C-8.94697046 -3.14810591 -4.91416952 -2.55158802 0 0 Z " fill="#000000" transform="translate(369.25,61.6875)"/>
<path d="M0 0 C4.96592669 2.30560882 7.41978039 5.22082111 10 10 C10.57098662 13.33824707 10.56124181 16.61943061 10.53125 20 C10.5350769 20.95390625 10.53890381 21.9078125 10.54284668 22.890625 C10.54556036 24.90105245 10.53823737 26.91151553 10.52148438 28.921875 C10.50006709 31.99038787 10.52130466 35.05655952 10.546875 38.125 C10.54423163 40.08333848 10.53910645 42.0416755 10.53125 44 C10.53934692 44.91265625 10.54744385 45.8253125 10.55578613 46.765625 C10.47405684 52.34723968 9.72311686 55.57473138 6 60 C2.18069828 63.62833663 -0.88279006 64.31000458 -6 64.5 C-11.11720994 64.31000458 -14.18069828 63.62833663 -18 60 C-22.42898965 54.73573631 -22.58960225 50.57725694 -22.53125 44 C-22.5350769 43.04609375 -22.53890381 42.0921875 -22.54284668 41.109375 C-22.54556036 39.09894755 -22.53823737 37.08848447 -22.52148438 35.078125 C-22.50006709 32.00961213 -22.52130466 28.94344048 -22.546875 25.875 C-22.54423163 23.91666152 -22.53910645 21.9583245 -22.53125 20 C-22.53934692 19.08734375 -22.54744385 18.1746875 -22.55578613 17.234375 C-22.47405684 11.65276032 -21.72311686 8.42526862 -18 4 C-12.72867143 -1.00776214 -6.89190982 -0.92775709 0 0 Z " fill="#000000" transform="translate(262,416)"/>
<path d="M0 0 C0.95390625 -0.0038269 1.9078125 -0.00765381 2.890625 -0.01159668 C4.90105245 -0.01431036 6.91151553 -0.00698737 8.921875 0.00976562 C11.99038787 0.03118291 15.05655952 0.00994534 18.125 -0.015625 C20.08333848 -0.01298163 22.0416755 -0.00785645 24 0 C25.36898437 -0.01214539 25.36898437 -0.01214539 26.765625 -0.02453613 C32.34723968 0.05719316 35.57473138 0.80813314 40 4.53125 C43.62833663 8.35055172 44.31000458 11.41404006 44.5 16.53125 C44.31000458 21.64845994 43.62833663 24.71194828 40 28.53125 C34.73573631 32.96023965 30.57725694 33.12085225 24 33.0625 C22.56914062 33.06824036 22.56914062 33.06824036 21.109375 33.07409668 C19.09894755 33.07681036 17.08848447 33.06948737 15.078125 33.05273438 C12.00961213 33.03131709 8.94344048 33.05255466 5.875 33.078125 C3.91666152 33.07548163 1.9583245 33.07035645 0 33.0625 C-1.36898438 33.07464539 -1.36898438 33.07464539 -2.765625 33.08703613 C-8.34723968 33.00530684 -11.57473138 32.25436686 -16 28.53125 C-19.62833663 24.71194828 -20.31000458 21.64845994 -20.5 16.53125 C-20.31000458 11.41404006 -19.62833663 8.35055172 -16 4.53125 C-10.73573631 0.10226035 -6.57725694 -0.05835225 0 0 Z " fill="#000000" transform="translate(436,239.46875)"/>
<path d="M0 0 C0.95390625 -0.0038269 1.9078125 -0.00765381 2.890625 -0.01159668 C4.90105245 -0.01431036 6.91151553 -0.00698737 8.921875 0.00976562 C11.99038787 0.03118291 15.05655952 0.00994534 18.125 -0.015625 C20.08333848 -0.01298163 22.0416755 -0.00785645 24 0 C25.36898437 -0.01214539 25.36898437 -0.01214539 26.765625 -0.02453613 C32.34723968 0.05719316 35.57473138 0.80813314 40 4.53125 C43.62833663 8.35055172 44.31000458 11.41404006 44.5 16.53125 C44.31000458 21.64845994 43.62833663 24.71194828 40 28.53125 C34.73573631 32.96023965 30.57725694 33.12085225 24 33.0625 C22.56914063 33.06824036 22.56914063 33.06824036 21.109375 33.07409668 C19.09894755 33.07681036 17.08848447 33.06948737 15.078125 33.05273438 C12.00961213 33.03131709 8.94344048 33.05255466 5.875 33.078125 C3.91666152 33.07548163 1.9583245 33.07035645 0 33.0625 C-1.36898437 33.07464539 -1.36898437 33.07464539 -2.765625 33.08703613 C-8.34723968 33.00530684 -11.57473138 32.25436686 -16 28.53125 C-19.62833663 24.71194828 -20.31000458 21.64845994 -20.5 16.53125 C-20.31000458 11.41404006 -19.62833663 8.35055172 -16 4.53125 C-10.73573631 0.10226035 -6.57725694 -0.05835225 0 0 Z " fill="#000000" transform="translate(52,239.46875)"/>
<path d="M0 0 C4.96592669 2.30560882 7.41978039 5.22082111 10 10 C10.57098662 13.33824707 10.56124181 16.61943061 10.53125 20 C10.5350769 20.95390625 10.53890381 21.9078125 10.54284668 22.890625 C10.54556036 24.90105245 10.53823737 26.91151553 10.52148438 28.921875 C10.50006709 31.99038787 10.52130466 35.05655952 10.546875 38.125 C10.54423163 40.08333848 10.53910645 42.0416755 10.53125 44 C10.53934692 44.91265625 10.54744385 45.8253125 10.55578613 46.765625 C10.47405684 52.34723968 9.72311686 55.57473138 6 60 C2.18069828 63.62833663 -0.88279006 64.31000458 -6 64.5 C-11.11720994 64.31000458 -14.18069828 63.62833663 -18 60 C-22.42898965 54.73573631 -22.58960225 50.57725694 -22.53125 44 C-22.5350769 43.04609375 -22.53890381 42.0921875 -22.54284668 41.109375 C-22.54556036 39.09894755 -22.53823737 37.08848447 -22.52148438 35.078125 C-22.50006709 32.00961213 -22.52130466 28.94344048 -22.546875 25.875 C-22.54423163 23.91666152 -22.53910645 21.9583245 -22.53125 20 C-22.53934692 19.08734375 -22.54744385 18.1746875 -22.55578613 17.234375 C-22.47405684 11.65276032 -21.72311686 8.42526862 -18 4 C-12.72867143 -1.00776214 -6.89190982 -0.92775709 0 0 Z " fill="#000000" transform="translate(262,32)"/>
</svg>
