<?xml version="1.0" encoding="UTF-8"?>
<svg version="1.1" xmlns="http://www.w3.org/2000/svg" width="512" height="512">
<path d="M0 0 C11.25882132 9.82054236 19.88612118 21.11169472 26.96875 34.2265625 C27.78859375 35.69222656 27.78859375 35.69222656 28.625 37.1875 C29.25341797 38.37279297 29.25341797 38.37279297 29.89453125 39.58203125 C31.62934168 41.52052263 31.62934168 41.52052263 34.85546875 41.47265625 C36.16128906 41.39917969 37.46710938 41.32570313 38.8125 41.25 C61.31143732 40.54482474 82.96271752 48.93668884 99.5625 64.0625 C113.76167502 77.56617918 125.53833797 98.0452191 126.80200195 117.97973633 C127.1784651 136.65440824 126.51779473 152.37339232 117.625 169.1875 C117.13386719 170.15042969 116.64273437 171.11335937 116.13671875 172.10546875 C105.7318313 191.30112031 87.64190181 206.0296454 66.80712891 212.46972656 C57.38726848 215.21966189 48.53820544 216.38233957 38.75 216.75 C37.68007813 216.79318359 36.61015625 216.83636719 35.5078125 216.88085938 C32.88032246 216.98642817 30.25274578 217.08853791 27.625 217.1875 C27.1403125 218.28707031 26.655625 219.38664063 26.15625 220.51953125 C22.11895617 229.49389354 17.84507396 237.48710277 11.625 245.1875 C10.4803125 246.734375 10.4803125 246.734375 9.3125 248.3125 C-6.36710757 265.08603367 -27.93228434 275.61055582 -50.91041756 276.46424484 C-57.63670609 276.61507125 -64.36254024 276.59357281 -71.09008789 276.57568359 C-73.67053956 276.5797548 -76.25098949 276.58509974 -78.83143616 276.59161377 C-85.08058823 276.60487308 -91.3296315 276.60210863 -97.57878763 276.59337585 C-102.6622238 276.58656932 -107.74562971 276.58569533 -112.82906914 276.5889473 C-113.55569004 276.589407 -114.28231093 276.58986669 -115.03095065 276.59034032 C-116.50757541 276.59129961 -117.98420016 276.59227225 -119.4608249 276.5932581 C-133.2692987 276.60178897 -147.0777125 276.59201385 -160.88617646 276.575857 C-172.70743214 276.56245307 -184.52859942 276.56478699 -196.34985352 276.57861328 C-210.11428909 276.59470505 -223.87867226 276.60096818 -237.64311594 276.59177649 C-239.11365949 276.59082095 -240.58420306 276.58987784 -242.05474663 276.5889473 C-242.77807695 276.58848447 -243.50140728 276.58802164 -244.2466567 276.58754479 C-249.31829555 276.58496588 -254.38990085 276.58930199 -259.4615345 276.59638596 C-266.29972204 276.60572851 -273.13774079 276.59897987 -279.97591209 276.58170319 C-282.47756805 276.57775422 -284.97923812 276.57884494 -287.48088837 276.58549118 C-314.70486611 276.65112152 -337.43290455 271.76361825 -358.375 253.1875 C-359.44041016 252.26517578 -359.44041016 252.26517578 -360.52734375 251.32421875 C-374.30294086 238.58520122 -384.31206953 217.93905325 -385.56787109 199.3293457 C-386.29805479 172.44752217 -381.93686925 149.46187347 -363.2578125 129.12109375 C-346.92222112 112.14521845 -325.30688613 101.58984192 -301.58203125 101.0078125 C-297.50904178 100.97315764 -293.44563689 101.05147624 -289.375 101.1875 C-288.90191406 100.24390625 -288.42882812 99.3003125 -287.94140625 98.328125 C-272.11573176 67.35426581 -246.65889087 45.91668743 -213.8125 35.00390625 C-206.65823277 32.82409045 -199.67921147 31.52733558 -192.23828125 30.77734375 C-187.21182328 29.74187969 -185.58019206 26.17229111 -182.75 22.125 C-178.6534792 16.43788871 -174.1797435 11.28240563 -169.375 6.1875 C-168.76269531 5.51074219 -168.15039062 4.83398438 -167.51953125 4.13671875 C-123.73438788 -42.44918006 -46.73167092 -39.46711883 0 0 Z M-151.375 32.1875 C-148.41122338 33.84901113 -145.40862543 34.80944236 -142.14794922 35.73339844 C-122.00276969 41.50027822 -104.15158054 52.43149965 -89.375 67.1875 C-88.51132812 68.03957031 -87.64765625 68.89164062 -86.7578125 69.76953125 C-77.63900751 79.24342989 -71.1048904 90.42683455 -65.375 102.1875 C-63.704375 102.13529297 -63.704375 102.13529297 -62 102.08203125 C-37.72561717 101.55426904 -15.9168757 107.87667926 2.625 124.1875 C3.76775391 125.18716797 3.76775391 125.18716797 4.93359375 126.20703125 C21.44358749 141.62971172 28.85528699 163.24845747 31.625 185.1875 C49.40979987 185.79687766 63.8586257 182.87972395 77.9375 171 C89.01936592 160.33190505 95.58474127 147.05787297 96.16333008 131.66333008 C96.3190286 114.90922602 91.357098 101.67535698 79.87109375 89.47265625 C79.12988281 88.71855469 78.38867188 87.96445313 77.625 87.1875 C77.05910156 86.60871094 76.49320313 86.02992188 75.91015625 85.43359375 C65.37636145 75.56942894 50.68472504 71.60939967 36.5390625 71.9453125 C32.67708542 72.2662811 28.958256 73.03147574 25.1640625 73.796875 C20.38071973 74.53277389 16.4103267 73.87728532 11.875 72.125 C9.66188484 70.21926195 8.95087801 69.14063175 7.71484375 66.58203125 C7.36824707 65.86668213 7.02165039 65.15133301 6.66455078 64.41430664 C5.68767672 62.32175888 4.7368333 60.22045488 3.80078125 58.109375 C-0.31892542 48.82656651 -4.84319113 41.03270671 -11.375 33.1875 C-12.15359375 32.20007813 -12.9321875 31.21265625 -13.734375 30.1953125 C-16.46724722 26.93170402 -19.57480875 24.34247371 -22.9375 21.75 C-23.55391357 21.27409424 -24.17032715 20.79818848 -24.80541992 20.30786133 C-64.32867277 -9.69686208 -117.54163714 -3.72436297 -151.375 32.1875 Z M-232.375 79.1875 C-233.29152344 79.8371875 -234.20804687 80.486875 -235.15234375 81.15625 C-249.87848643 92.22922015 -258.26382381 108.14058782 -265.4609375 124.68359375 C-267.42758001 128.97087441 -268.90632602 131.46096687 -273.375 133.1875 C-278.21193659 134.27164096 -281.77884833 134.22760985 -286.625 133.25 C-301.52820862 130.28571296 -316.69833782 132.88955388 -329.55859375 141.078125 C-341.97661574 150.37872399 -351.01505195 162.87641069 -354.375 178.1875 C-356.07833139 197.12035177 -352.57701272 212.38373581 -340.375 227.1875 C-335.50380311 232.74650613 -329.88452188 236.22879685 -323.375 239.5625 C-322.72265381 239.89677002 -322.07030762 240.23104004 -321.39819336 240.57543945 C-312.9913624 244.64015426 -304.82842312 245.4842549 -295.57878113 245.44819641 C-294.52600159 245.45202196 -293.47322204 245.45584751 -292.38854009 245.45978898 C-288.87901098 245.47006519 -285.36964712 245.46613702 -281.86010742 245.4621582 C-279.33640899 245.46650767 -276.81271188 245.4716916 -274.28901672 245.47764587 C-268.15603805 245.48963436 -262.02311978 245.49219022 -255.89013167 245.48984561 C-250.90188594 245.48805883 -245.91365347 245.4898198 -240.92540932 245.49407005 C-239.85837064 245.49496284 -239.85837064 245.49496284 -238.76977563 245.49587366 C-237.32439221 245.49708548 -235.87900879 245.49829961 -234.43362538 245.49951603 C-220.89326799 245.51038041 -207.35293553 245.50823443 -193.81257675 245.50213119 C-181.4442926 245.49696415 -169.07608727 245.50821379 -156.70781871 245.52722941 C-143.98804881 245.5466345 -131.26831614 245.55485906 -118.54853135 245.55110615 C-111.41540165 245.54919801 -104.282339 245.55164372 -97.14922142 245.56582069 C-90.43916423 245.57902257 -83.72928979 245.57643828 -77.01922417 245.56340981 C-74.56188147 245.56104823 -72.10452764 245.56376363 -69.64719772 245.57203293 C-66.28200741 245.5825374 -62.91734178 245.57436962 -59.5521698 245.5617218 C-58.10801257 245.57278323 -58.10801257 245.57278323 -56.63468045 245.58406812 C-40.30745266 245.45576345 -26.51632137 239.35663091 -15.00390625 227.98046875 C-3.86306486 216.1443594 1.20646142 201.58816723 0.8671875 185.47265625 C-0.28795913 169.80365114 -7.76222606 155.64578764 -19.375 145.1875 C-32.2547611 135.32528293 -46.28375366 131.19309714 -62.375 132.1875 C-64.8162251 132.55966971 -67.25395904 132.95551382 -69.6875 133.375 C-75.72108891 134.31460228 -79.05728151 134.24026432 -84.375 131.1875 C-87.97180624 127.33779333 -89.79916875 123.29969119 -91.75 118.5 C-96.24827274 107.88566522 -101.83440711 98.94767596 -109.375 90.1875 C-109.89449219 89.58292969 -110.41398438 88.97835937 -110.94921875 88.35546875 C-125.23677032 72.98825334 -147.58215312 62.25349398 -168.57006836 61.06298828 C-192.45861189 60.29874476 -212.8780859 65.21670511 -232.375 79.1875 Z " fill="#000000" transform="translate(385.375,132.8125)"/>
</svg>
