<?xml version="1.0" encoding="UTF-8"?>
<svg version="1.1" xmlns="http://www.w3.org/2000/svg" width="512" height="512">
<path d="M0 0 C1.13953125 0.36222656 2.2790625 0.72445312 3.453125 1.09765625 C16.20607056 5.64127816 27.82258773 12.07492096 38 21 C38.73347656 21.59039062 39.46695312 22.18078125 40.22265625 22.7890625 C60.91140605 39.9384671 72.70131262 66.14838555 75.53515625 92.51171875 C78.13733168 122.73243796 68.67889131 151.27613047 49.26953125 174.421875 C44.62910209 179.69327474 39.75933539 184.93458678 34 189 C33.34 189 32.68 189 32 189 C32.23976563 189.85851562 32.23976563 189.85851562 32.484375 190.734375 C35.39269176 203.51334257 31.12726194 218.78989577 25 230 C24.319375 231.27617187 24.319375 231.27617187 23.625 232.578125 C14.61576273 248.54014321 -0.16951106 259.79233352 -17.8125 264.8125 C-25.26512098 266.71898444 -32.5130404 267.14753078 -40.16261292 267.14044189 C-41.17143695 267.14341302 -42.18026099 267.14638414 -43.21965545 267.1494453 C-46.59249036 267.15810122 -49.96528964 267.15963792 -53.33813477 267.16113281 C-55.75977148 267.16576322 -58.18140746 267.17078819 -60.6030426 267.17617798 C-67.17773776 267.18928342 -73.75242554 267.19578066 -80.32713056 267.20018864 C-84.4381347 267.20295739 -88.54913652 267.20719592 -92.66013908 267.21169281 C-104.05845905 267.22388149 -115.45677715 267.23418118 -126.85510349 267.2375679 C-127.58380337 267.23778747 -128.31250324 267.23800703 -129.06328493 267.23823325 C-130.15884589 267.23856067 -130.15884589 267.23856067 -131.27653939 267.2388947 C-132.75638108 267.23933816 -134.23622276 267.23978472 -135.71606445 267.24023438 C-136.45010606 267.2404558 -137.18414767 267.24067723 -137.94043296 267.24090537 C-149.82250057 267.2448496 -161.70450671 267.26229393 -173.5865506 267.2855939 C-185.80679635 267.30936215 -198.02701132 267.32177226 -210.24728054 267.32293582 C-217.09993684 267.32384958 -223.95251305 267.32952592 -230.80514717 267.34775543 C-237.25579195 267.36485594 -243.70632569 267.36636829 -250.15698814 267.35761642 C-252.51673922 267.35684859 -254.87649859 267.3611551 -257.23622894 267.37107468 C-280.05999435 267.46134606 -298.63929381 264.74827456 -317 250 C-317.8146875 249.39285156 -318.629375 248.78570312 -319.46875 248.16015625 C-333.17106755 236.46666612 -341.60228147 218.46851542 -343.21142578 200.66015625 C-344.4323947 179.05907169 -338.52303415 159.75463572 -324.8125 142.875 C-316.23967778 133.55919985 -302.83904534 123.91985725 -290 122 C-289.98582031 121.45214844 -289.97164063 120.90429688 -289.95703125 120.33984375 C-288.52702504 96.57082155 -273.86714598 75.06125436 -256.72802734 59.47802734 C-236.18475234 41.90682264 -209.54104246 35.28859993 -183 37 C-164.19565054 39.04181556 -146.72013959 46.03988659 -132 58 C-131.34 58 -130.68 58 -130 58 C-129.27296875 56.54980469 -129.27296875 56.54980469 -128.53125 55.0703125 C-124.3954863 46.97696994 -120.00677156 39.8789204 -114 33 C-113.48308594 32.34 -112.96617187 31.68 -112.43359375 31 C-86.86766389 -0.78120604 -37.8846644 -12.06953837 0 0 Z M-95.59765625 47.859375 C-99.43580916 51.9531699 -99.43580916 51.9531699 -101 57 C-100.43716309 56.98428955 -99.87432617 56.9685791 -99.29443359 56.95239258 C-74.39748963 56.35115193 -54.50534738 61.13272552 -35.8125 78.6875 C-25.2006397 89.70362164 -17.65218043 104.68192713 -16 120 C-16.07476562 120.99128906 -16.14953125 121.98257813 -16.2265625 123.00390625 C-16.39338129 126.51149085 -16.36051678 128.74286876 -15 132 C-10.92476447 135.33168856 -5.75086912 137.08802177 -0.9453125 139.11181641 C3.25232684 141.02835907 6.61040897 143.92287628 10 147 C10.69480469 147.61488281 11.38960938 148.22976563 12.10546875 148.86328125 C17.20616612 153.6386058 20.68519669 158.8726363 24 165 C39.53048991 152.70502882 48.24722913 134.94390108 51.58203125 115.62890625 C54.21964042 92.72854251 48.96191971 70.52481715 35 52 C19.44409485 32.91874709 -0.5502563 21.92184085 -25 19 C-51.97649045 17.27880061 -77.42127166 27.8516855 -95.59765625 47.859375 Z M-247.16015625 83.125 C-258.4751325 95.33383757 -265.45624311 109.98627369 -267.41796875 126.5234375 C-267.56878906 127.77382813 -267.71960938 129.02421875 -267.875 130.3125 C-268.05675781 132.07013672 -268.05675781 132.07013672 -268.2421875 133.86328125 C-269.14578269 137.60342009 -269.89095821 138.75790256 -273 141 C-275.65054105 142.13610389 -278.36957336 142.9695362 -281.125 143.8125 C-294.90136144 148.36910562 -305.54611741 156.75231336 -312.75 169.4765625 C-318.81819178 181.72672466 -319.72463014 195.0415854 -315.95703125 208.16796875 C-311.39106339 221.67950631 -302.49927084 231.97855716 -289.91796875 238.66796875 C-279.96976959 243.20924842 -270.08663592 244.1528516 -259.27986145 244.13371277 C-258.33073071 244.13597833 -257.38159996 244.13824388 -256.40370768 244.14057809 C-253.23893385 244.14688327 -250.07420323 244.14609097 -246.90942383 244.14526367 C-244.63379868 244.14825736 -242.35817403 244.15166038 -240.08255005 244.15544128 C-233.91085742 244.16426479 -227.73917866 244.16661873 -221.56748033 244.16725707 C-217.70791051 244.16796859 -213.8483442 244.17010485 -209.98877525 244.17275429 C-197.20824686 244.18152576 -184.42772998 244.18617468 -171.64719931 244.18542381 C-170.95916797 244.18538386 -170.27113663 244.1853439 -169.56225586 244.18530273 C-168.52893707 244.18524141 -168.52893707 244.18524141 -167.47474315 244.18517885 C-156.31956165 244.18477271 -145.16441395 244.1943357 -134.00924221 244.2084411 C-122.53364653 244.22283623 -111.05807167 244.22952679 -99.5824663 244.22884732 C-93.14850169 244.22859288 -86.71457533 244.23141421 -80.28061867 244.24202538 C-74.22558486 244.25173913 -68.17062564 244.25176308 -62.11558914 244.24450874 C-59.90055036 244.24346693 -57.68550686 244.24580171 -55.47047615 244.2518692 C-35.50976343 244.30297945 -18.49991871 244.04627068 -3.19140625 229.42578125 C5.73613836 219.54341903 9.42187418 207.67961477 9.2734375 194.54296875 C8.47456793 184.19190158 4.55596691 175.91478911 -2 168 C-2.50015625 167.36449219 -3.0003125 166.72898437 -3.515625 166.07421875 C-10.41298847 158.21888813 -21.15234012 154.30030115 -31.00390625 151.6796875 C-34.56561973 150.46689269 -36.36590141 148.26819719 -38 145 C-38.04864784 143.61804104 -38.03696235 142.23365237 -37.9921875 140.8515625 C-37.58352178 122.98407635 -39.8668183 108.70800974 -52.625 95.3203125 C-63.97349987 84.23312677 -76.5848548 79.63688799 -92.3671875 79.78515625 C-102.24396928 80.369267 -111.50650706 84.11435865 -119.5625 89.8125 C-123.41157866 91.68769217 -126.8245578 91.96679702 -131 91 C-134.86644514 88.60164118 -137.78501725 85.28527101 -140.890625 82 C-154.29427383 68.0514874 -172.21236316 60.99322135 -191.3671875 60.00390625 C-212.8904311 59.98076298 -231.86116055 68.07499338 -247.16015625 83.125 Z " fill="#000000" transform="translate(349,165)"/>
<path d="M0 0 C1.79858398 1.23071289 1.79858398 1.23071289 3.55859375 2.84765625 C4.24711426 3.47873291 4.93563477 4.10980957 5.64501953 4.76000977 C9.88776879 8.79559182 14.10877353 12.8460448 18.26538086 16.97021484 C19.30132963 17.9945568 20.34175196 19.01439317 21.38647461 20.02978516 C22.91999403 21.52047418 24.43967462 23.02413212 25.95703125 24.53125 C26.85397705 25.41361328 27.75092285 26.29597656 28.67504883 27.20507812 C32.14428432 31.37559245 34.03326066 35.0708816 33.9375 40.625 C32.6453439 45.27676196 30.85327634 47.89805191 26.6875 50.375 C22.93279704 51.24818674 20.73474671 51.07611346 17 50 C9.98463072 44.95831688 3.93581669 38.15477206 -2.17480469 32.06542969 C-3.88556559 30.3644951 -5.60671457 28.67452258 -7.328125 26.984375 C-8.4251338 25.89388732 -9.52151113 24.80276394 -10.6171875 23.7109375 C-11.12861298 23.21185883 -11.64003845 22.71278015 -12.16696167 22.19857788 C-15.01228545 19.33525987 -16.91378424 16.91215608 -18 13 C-17.81098413 7.70755557 -16.75330168 4.75330168 -13 1 C-8.53829341 -1.70124199 -4.90962342 -1.39454145 0 0 Z " fill="#000000" transform="translate(199,131)"/>
<path d="M0 0 C4.64451495 2.80765919 8.35600928 6.0611747 12.16796875 9.90234375 C12.72946121 10.46192276 13.29095367 11.02150177 13.86946106 11.59803772 C15.04751201 12.77473557 16.22307282 13.95393125 17.39624023 15.13549805 C19.18580027 16.93579008 20.98581117 18.72513317 22.78710938 20.51367188 C23.93553779 21.66342164 25.08334577 22.81379153 26.23046875 23.96484375 C26.76488083 24.49520737 27.29929291 25.02557098 27.84989929 25.57200623 C32.18342878 29.96007236 35.42087096 33.66967652 35.5 40 C35.39914603 43.98076542 35.16188064 44.7966115 32.5625 48.0625 C31.716875 48.701875 30.87125 49.34125 30 50 C29.67 50.33 29.34 50.66 29 51 C26.99609375 51.34375 26.99609375 51.34375 24.4375 51.5 C23.19806641 51.60828125 23.19806641 51.60828125 21.93359375 51.71875 C17.18552442 50.5554414 14.46243709 47.33633449 11 44 C9.98074479 43.04304376 8.96058188 42.08705374 7.93969727 41.13183594 C5.04150373 38.4066232 2.18522004 35.64138454 -0.65698242 32.85791016 C-1.84866804 31.69808779 -3.04832888 30.54640635 -4.25561523 29.40283203 C-6.02217146 27.7277936 -7.76083393 26.02768172 -9.49609375 24.3203125 C-10.03455429 23.82000519 -10.57301483 23.31969788 -11.12779236 22.80422974 C-14.76294022 19.14980208 -15.69547851 16.19387747 -16.08460999 11.07614136 C-15.94875052 7.74245149 -14.91959186 5.68742861 -13 3 C-9.21533831 -0.24399574 -4.84176285 -1.11194192 0 0 Z " fill="#000000" transform="translate(419,352)"/>
<path d="M0 0 C3.08776034 2.0585069 4.56771464 3.53293156 5.625 7.12109375 C6.45600303 12.25426872 6.10663162 15.66954381 3 20 C1.87978425 21.01683012 0.73294213 22.00460708 -0.4296875 22.97265625 C-6.52764407 28.222507 -12.0657998 34.06120803 -17.6628418 39.83422852 C-19.0952708 41.30906104 -20.53705554 42.77420809 -21.98046875 44.23828125 C-23.24733521 45.5382605 -23.24733521 45.5382605 -24.53979492 46.86450195 C-28.1771303 50.02176826 -30.69184753 51.04671973 -35.5 50.875 C-39.47626732 49.88093317 -41.26329607 49.04947009 -44 46 C-45.96081996 41.88138274 -46.40545678 39.20866592 -44.93359375 34.82104492 C-42.88421973 30.21290389 -39.59704428 27.05765491 -36.03125 23.5703125 C-35.35453247 22.89451141 -34.67781494 22.21871033 -33.98059082 21.52243042 C-32.55640775 20.10426184 -31.12739451 18.69092914 -29.69384766 17.28222656 C-27.49643419 15.12149372 -25.31561611 12.94501277 -23.13671875 10.765625 C-21.74833876 9.38707053 -20.35904715 8.00943345 -18.96875 6.6328125 C-18.31555786 5.98184601 -17.66236572 5.33087952 -16.98937988 4.66018677 C-16.07327942 3.76322586 -16.07327942 3.76322586 -15.13867188 2.84814453 C-14.60367065 2.32076691 -14.06866943 1.79338928 -13.51745605 1.25003052 C-9.53464048 -2.03088229 -4.67609025 -1.16492073 0 0 Z " fill="#000000" transform="translate(450,131)"/>
<path d="M0 0 C3.63467079 1.62400184 4.77408696 2.66113044 7 6 C8.29355354 10.51918507 8.17851513 15.11009994 8.203125 19.7734375 C8.20882507 20.6154068 8.21452515 21.4573761 8.22039795 22.32485962 C8.22981888 24.10165155 8.23637034 25.87846073 8.24023438 27.65527344 C8.24994268 30.35903659 8.28099427 33.06203987 8.3125 35.765625 C8.31903081 37.49739135 8.32428098 39.2291631 8.328125 40.9609375 C8.3404718 41.76220062 8.3528186 42.56346375 8.36553955 43.38900757 C8.3405645 49.74817415 7.16916792 54.51183679 2.875 59.4375 C-1.14227915 61.62080389 -4.52608017 61.9356704 -9 61 C-12.06583403 59.27267979 -14.40227558 57.19544885 -16 54 C-16.11470555 52.52095115 -16.1693905 51.03701519 -16.19287109 49.55371094 C-16.20893402 48.63225281 -16.22499695 47.71079468 -16.24154663 46.76141357 C-16.28601715 42.54033123 -16.32707146 38.31940646 -16.35009766 34.09814453 C-16.36664675 31.87310316 -16.39392273 29.64811472 -16.43212891 27.42333984 C-16.48695683 24.21423782 -16.50878236 21.00638264 -16.5234375 17.796875 C-16.54610687 16.80604919 -16.56877625 15.81522339 -16.59213257 14.79437256 C-16.5782451 10.24291277 -16.52508908 7.01704185 -13.59228516 3.38769531 C-9.26767795 -0.59560272 -5.69710888 -0.56182562 0 0 Z " fill="#000000" transform="translate(323,80)"/>
<path d="M0 0 C0.92130707 -0.0159874 1.84261414 -0.03197479 2.7918396 -0.04844666 C3.78043976 -0.05380936 4.76903992 -0.05917206 5.78759766 -0.06469727 C6.81092194 -0.07372574 7.83424622 -0.08275421 8.88858032 -0.09205627 C11.05215531 -0.10655513 13.21577412 -0.1154446 15.37939453 -0.11914062 C18.68288319 -0.1310359 21.98450317 -0.18022569 25.28759766 -0.23071289 C27.39175522 -0.24017754 29.49592424 -0.24741238 31.60009766 -0.25219727 C32.58464935 -0.27172958 33.56920105 -0.2912619 34.58358765 -0.31138611 C39.11786204 -0.28167745 42.32092431 -0.20363267 45.93457031 2.71630859 C49.45673337 6.53000812 49.71858303 8.9333515 49.68603516 13.97827148 C49.08121738 17.89643885 47.15789259 19.60998465 44.32666016 22.30639648 C41.97275866 23.48334723 40.50599439 23.45770416 37.88037109 23.49926758 C36.95891296 23.51533051 36.03745483 23.53139343 35.08807373 23.54794312 C30.86699138 23.59241364 26.64606662 23.63346794 22.42480469 23.65649414 C20.19976332 23.67304323 17.97477488 23.70031922 15.75 23.73852539 C12.54089798 23.79335331 9.3330428 23.81517884 6.12353516 23.82983398 C5.13270935 23.85250336 4.14188354 23.87517273 3.12103271 23.89852905 C-1.43042707 23.88464158 -4.65629799 23.83148557 -8.28564453 20.89868164 C-11.86475749 17.01289213 -11.95780602 14.67364155 -11.89208984 9.56420898 C-11.59223852 6.46931493 -10.67646475 4.66722227 -8.67333984 2.30639648 C-5.70870263 0.49599581 -3.45061494 0.04543961 0 0 Z " fill="#000000" transform="translate(456.67333984375,255.693603515625)"/>
</svg>
