<?xml version="1.0" encoding="UTF-8"?>
<svg version="1.1" xmlns="http://www.w3.org/2000/svg" width="512" height="512">
<path d="M0 0 C0.68513672 0.20898926 1.37027344 0.41797852 2.07617188 0.63330078 C34.31893939 10.81402326 57.90000927 33.89206974 74 63 C74.92111572 62.86368164 74.92111572 62.86368164 75.86083984 62.72460938 C78.69786965 62.30904444 81.53636909 61.90447758 84.375 61.5 C85.34050781 61.35691406 86.30601562 61.21382813 87.30078125 61.06640625 C112.257679 57.54899113 137.86989517 63.72482599 158.28344727 78.67041016 C178.98115303 94.52592203 192.34729482 116.3234087 196.6953125 142.14453125 C197.25852097 147.42280548 197.15165598 152.70046601 197 158 C198.051875 158.061875 199.10375 158.12375 200.1875 158.1875 C220.81114285 160.83807382 239.22699835 175.12934257 251.7890625 190.984375 C266.07859137 210.47468647 271.73864115 234.04780318 268.53515625 257.9921875 C264.31174839 281.6332753 252.13145507 302.68840385 232.4453125 316.8359375 C214.46057356 328.77363378 196.09241363 333.15540165 174.75163269 333.14044189 C173.40945883 333.1430292 172.06728573 333.14604337 170.72511369 333.1494453 C167.05155161 333.15747608 163.3780091 333.15930267 159.70443928 333.16004276 C155.7362123 333.16190026 151.76799532 333.16945122 147.79977417 333.17617798 C139.12776252 333.18973545 130.45575552 333.19578241 121.78373504 333.20018864 C116.36158828 333.20295629 110.9394433 333.20719467 105.51729774 333.21169281 C90.48515402 333.2238837 75.45301171 333.23418233 60.42086315 333.2375679 C59.45951492 333.23778747 58.49816669 333.23800703 57.50768669 333.23823325 C56.54411723 333.23845153 55.58054776 333.23866981 54.58777922 333.2388947 C52.63542378 333.23933816 50.68306833 333.23978472 48.73071289 333.24023438 C47.27807821 333.24056652 47.27807821 333.24056652 45.79609738 333.24090537 C30.12486025 333.24484842 14.45366977 333.26228816 -1.21754936 333.2855939 C-17.33300307 333.30936538 -33.44843343 333.32177244 -49.56390494 333.32293582 C-58.60149056 333.3238495 -67.63901545 333.32952373 -76.67658424 333.34775543 C-84.37677883 333.36323508 -92.07689393 333.36823099 -99.77710114 333.36001733 C-103.69846146 333.35613802 -107.6196621 333.35690537 -111.54100227 333.37107468 C-150.02972462 333.50218661 -150.02972462 333.50218661 -167.25 327.3125 C-167.97977051 327.05831299 -168.70954102 326.80412598 -169.46142578 326.54223633 C-198.79314538 315.90654334 -220.03952954 294.08705857 -233.6875 266.6015625 C-245.82381678 240.08371034 -246.5193732 208.49575008 -236.5378418 181.19360352 C-231.78543617 168.93860387 -225.33702234 158.17691693 -217 148 C-216.31421875 147.14921875 -215.6284375 146.2984375 -214.921875 145.421875 C-200.47625569 128.40814559 -177.49742771 113.54797122 -155 111 C-155.02320313 109.84242187 -155.04640625 108.68484375 -155.0703125 107.4921875 C-155.03775071 82.77778642 -143.59315411 57.66531527 -128 39 C-127.18015625 38.01644531 -126.3603125 37.03289063 -125.515625 36.01953125 C-95.35688529 1.01455891 -44.33144147 -13.76130616 0 0 Z M-99.3046875 56.24609375 C-112.78646515 70.54097472 -121.94774416 91.02842724 -122.17578125 110.80859375 C-122.19962891 111.88560547 -122.22347656 112.96261719 -122.24804688 114.07226562 C-122.29093712 116.31165628 -122.32223034 118.55129975 -122.34179688 120.79101562 C-122.51055141 127.35674456 -122.89878238 131.7552415 -127 137 C-130.87705899 140.17945668 -135.04026605 140.70131655 -139.875 141.375 C-158.61141233 144.39328481 -173.31660047 151.72904336 -187 165 C-187.62390625 165.55042969 -188.2478125 166.10085937 -188.890625 166.66796875 C-202.24514158 178.84945347 -209.22311413 198.58391177 -210.3203125 216.2890625 C-211.18449741 239.15883197 -203.00859652 258.94477668 -188 276 C-179.60905539 284.85710819 -169.20187846 291.04544708 -157.875 295.375 C-157.25488037 295.6136377 -156.63476074 295.85227539 -155.99584961 296.09814453 C-145.97805838 299.69908157 -135.94548446 300.2932018 -125.38172913 300.26069641 C-124.03610077 300.26372313 -122.69047413 300.2676152 -121.34485048 300.27228898 C-117.67592751 300.28251053 -114.0071029 300.28040221 -110.33817208 300.27610838 C-106.37012644 300.27363051 -102.40210384 300.28266839 -98.43406677 300.29014587 C-90.67173905 300.30286497 -82.90944597 300.3046901 -75.14710958 300.30234561 C-68.83549526 300.30055936 -62.52389143 300.30231866 -56.21227837 300.30657005 C-54.86255932 300.30746284 -54.86255932 300.30746284 -53.48557321 300.30837366 C-51.65735686 300.30958546 -49.82914051 300.31079959 -48.00092416 300.31201603 C-30.87432419 300.32288057 -13.74774393 300.32073408 3.37885714 300.31463119 C19.03200296 300.30946156 34.68508655 300.32072062 50.33822005 300.33972941 C66.43000871 300.35912038 82.52176795 300.36736169 98.61356837 300.36360615 C107.64026187 300.36169621 116.6669024 300.36416165 125.69358635 300.37832069 C133.37707922 300.39025143 141.0604865 300.39162032 148.74398058 300.37953053 C152.66043963 300.37365406 156.57674226 300.37250817 160.49319077 300.38453293 C164.08515049 300.39543287 167.67682396 300.39224009 171.26877052 300.37827124 C173.1691435 300.37439635 175.06952939 300.38513764 176.96987194 300.39656812 C192.9320829 300.29677392 208.3700968 295.4176478 220.04296875 284.15625 C231.48576596 271.54861715 236.54469824 257.62610206 236.2421875 240.76953125 C235.30850352 226.23719189 228.69018192 212.89472373 218 203 C206.85770912 193.68647768 194.13984821 189.44370561 179.8125 188.625 C174.41077552 188.21535766 171.27553003 187.36584279 167 184 C164.23602478 179.51903432 163.65985961 176.2776743 163.8125 171.0546875 C163.82953979 170.07799606 163.82953979 170.07799606 163.84692383 169.08157349 C163.89532278 166.32707231 163.97907068 163.57397299 164.06152344 160.8203125 C164.5759506 141.97603313 159.57017094 125.98606627 146.48144531 112.15209961 C134.54687914 100.32459708 118.39917348 93.03481753 101.5 92.75 C92.0567434 92.85518479 83.29712256 94.83669042 74.6875 98.6875 C68.2314348 101.5329828 63.36769325 102.20728626 56.6875 99.8125 C51.76485171 96.49257441 49.58659305 92.52463432 47.6875 87 C39.13130682 63.95809374 23.51731024 47.16513335 1.51953125 36.27734375 C-34.32076755 20.08755284 -71.78239621 29.42352173 -99.3046875 56.24609375 Z " fill="#000000" transform="translate(243,4)"/>
<path d="M0 0 C4.33072531 2.22589967 6.79129451 5.00837027 8.94140625 9.30859375 C12.03094521 20.70126867 4.39368671 31.87968325 -0.58203125 41.82421875 C-1.21235487 43.09198912 -1.84244668 44.35987477 -2.47232056 45.62786865 C-3.7844047 48.26537826 -5.10111459 50.90051514 -6.42089844 53.53417969 C-8.10158038 56.8896289 -9.76748792 60.25217792 -11.4296627 63.6168251 C-12.72334091 66.2301571 -14.02627378 68.8387932 -15.33180618 71.4462204 C-15.9496856 72.68365828 -16.56442866 73.92266793 -17.17579269 75.16333771 C-25.34603488 91.71716882 -25.34603488 91.71716882 -32.80859375 95.37109375 C-37.76644036 96.90023801 -42.26221332 96.08116913 -47.05859375 94.30859375 C-50.27062814 92.47786633 -52.45100493 90.27521232 -54.43359375 87.12109375 C-56.30097027 78.71789939 -54.84346639 72.42901119 -50.93359375 64.93359375 C-50.47073975 64.00820801 -50.00788574 63.08282227 -49.53100586 62.12939453 C-48.41615641 59.90452555 -47.29249156 57.68406344 -46.16259766 55.46679688 C-43.58737485 50.39962063 -41.08381086 45.29720131 -38.5703125 40.19921875 C-37.08663795 37.19898456 -35.60153467 34.1994639 -34.11553955 31.20037842 C-33.12169575 29.19414123 -32.12897338 27.18734811 -31.13739014 25.17999268 C-29.72288522 22.32124176 -28.3000835 19.46677061 -26.875 16.61328125 C-26.44926193 15.74954895 -26.02352386 14.88581665 -25.58488464 13.99591064 C-20.21601796 3.2967614 -12.82934086 -4.30890575 0 0 Z " fill="#000000" transform="translate(207.05859375,360.69140625)"/>
<path d="M0 0 C4.42484878 2.21242439 7.19476657 4.94799616 10 9 C13.00498027 18.01494081 9.81812203 24.5402756 5.84324646 32.56402588 C5.09302681 34.04835486 4.34186953 35.53221026 3.58984375 37.015625 C2.82085305 38.5596778 2.05293124 40.10426336 1.286026 41.64935303 C-0.32071479 44.87606015 -1.94020769 48.0959406 -3.5690918 51.31152344 C-5.64927094 55.42058964 -7.69668082 59.54498521 -9.73478031 63.67505264 C-11.31318072 66.86447299 -12.90872704 70.04507276 -14.50948906 73.22332001 C-15.27103649 74.74043895 -16.02730615 76.26021973 -16.7780323 77.78272247 C-17.8322488 79.9141784 -18.90909612 82.03264165 -19.99243164 84.14941406 C-20.29454056 84.77184998 -20.59664948 85.39428589 -20.90791321 86.0355835 C-23.33122951 90.6799922 -26.42586059 93.57431834 -31 96 C-36.32193131 97.51256445 -40.90291101 97.31685863 -46 95 C-50.71766164 90.6307485 -53.6937436 87.00135421 -54.36035156 80.46850586 C-54.27371335 74.85196795 -51.74651388 70.41476135 -49.234375 65.50390625 C-48.73983826 64.50581436 -48.24530151 63.50772247 -47.73577881 62.47938538 C-46.69205495 60.37384643 -45.64222758 58.27132324 -44.58666992 56.17169189 C-42.55020644 52.10088004 -40.5727009 48.00282291 -38.59411621 43.90365601 C-36.65832546 39.906444 -34.69474632 35.92322951 -32.72802734 31.94116211 C-31.7292176 29.91137085 -30.73686291 27.87839239 -29.75048828 25.8425293 C-28.29170886 22.83382649 -26.81226165 19.83610328 -25.328125 16.83984375 C-24.89566467 15.93676987 -24.46320435 15.03369598 -24.01763916 14.10325623 C-18.69419299 3.48926755 -12.0988156 -1.35899333 0 0 Z " fill="#000000" transform="translate(493,360)"/>
<path d="M0 0 C5.65134314 1.98843555 8.49495092 5.14040676 11.25 10.375 C13.50255779 18.25895225 10.79577758 23.4154268 7.2421875 30.4296875 C6.74806366 31.43208466 6.25393982 32.43448181 5.74484253 33.46725464 C4.69999625 35.58399017 3.64930005 37.69784693 2.59313965 39.80895996 C1.05054262 42.89876373 -0.47032287 45.99818796 -1.98339844 49.10253906 C-4.42925127 54.11648166 -6.89907483 59.11800961 -9.38183594 64.11376953 C-10.39222711 66.15140273 -11.39829344 68.19118525 -12.40039062 70.23291016 C-13.8796831 73.24609031 -15.37191559 76.25253646 -16.8671875 79.2578125 C-17.3099704 80.16604767 -17.7527533 81.07428284 -18.20895386 82.01004028 C-21.22702545 88.02592507 -24.30989188 92.20659458 -30 96 C-36.77840675 97.35568135 -41.67888963 97.03795409 -47.75 93.3125 C-51.49129544 89.46727969 -52.82131431 85.7185014 -53.37207031 80.42163086 C-53.27155864 74.834001 -50.73359106 70.38949918 -48.234375 65.50390625 C-47.73983826 64.50581436 -47.24530151 63.50772247 -46.73577881 62.47938538 C-45.69205495 60.37384643 -44.64222758 58.27132324 -43.58666992 56.17169189 C-41.55020644 52.10088004 -39.5727009 48.00282291 -37.59411621 43.90365601 C-35.65832546 39.906444 -33.69474632 35.92322951 -31.72802734 31.94116211 C-30.7292176 29.91137085 -29.73686291 27.87839239 -28.75048828 25.8425293 C-27.29170886 22.83382649 -25.81226165 19.83610328 -24.328125 16.83984375 C-23.89566467 15.93676987 -23.46320435 15.03369598 -23.01763916 14.10325623 C-17.77636361 3.65310091 -11.76539419 -0.99553335 0 0 Z " fill="#000000" transform="translate(61,360)"/>
<path d="M0 0 C3.75686903 1.91110294 6.33949014 4.54178849 8.20825195 8.31835938 C10.32013838 14.91295636 9.0401372 21.12285296 6.06469727 27.17626953 C5.62569092 28.01786621 5.18668457 28.85946289 4.734375 29.7265625 C4.04009399 31.11464111 4.04009399 31.11464111 3.33178711 32.53076172 C2.21693766 34.7556307 1.09327281 36.97609281 -0.03662109 39.19335938 C-2.6118439 44.26053562 -5.11540789 49.36295494 -7.62890625 54.4609375 C-9.1125808 57.46117169 -10.59768408 60.46069235 -12.0836792 63.45977783 C-13.077523 65.46601502 -14.07024537 67.47280814 -15.06182861 69.48016357 C-16.47633353 72.33891449 -17.89913525 75.19338564 -19.32421875 78.046875 C-19.74995682 78.9106073 -20.17569489 79.7743396 -20.61433411 80.66424561 C-23.71286246 86.8390343 -26.6215957 92.330075 -33.140625 95.3515625 C-38.63738439 96.17274728 -43.57843054 96.07686707 -48.640625 93.7265625 C-53.39023093 89.21443687 -55.6603525 85.35470136 -56.26254272 78.88690186 C-56.02911114 74.03257671 -53.69651495 70.09395848 -51.47265625 65.859375 C-50.725783 64.37209396 -50.725783 64.37209396 -49.96382141 62.85476685 C-48.9067159 60.75019161 -47.84127859 58.64978351 -46.76812744 56.55334473 C-44.64160672 52.36984486 -42.59806048 48.14835011 -40.55319214 43.92449951 C-38.518765 39.73357716 -36.45368806 35.55812713 -34.38647461 31.38330078 C-33.33302556 29.24933616 -32.28531963 27.11252826 -31.24291992 24.97314453 C-29.70529071 21.8190455 -28.14964129 18.67443323 -26.58984375 15.53125 C-26.13034836 14.57926727 -25.67085297 13.62728455 -25.19743347 12.64645386 C-19.89007888 2.06396767 -12.28032762 -3.71995326 0 0 Z " fill="#000000" transform="translate(399.140625,416.6484375)"/>
<path d="M0 0 C4.71556341 4.37052218 7.32963944 8.4063989 7.68595886 14.8616333 C7.24237151 23.89215285 0.78458026 33.32157827 -3.14453125 41.265625 C-3.46310278 41.91091911 -3.78167431 42.55621323 -4.10989952 43.22106171 C-5.79263055 46.62789955 -7.48039352 50.03219065 -9.17211914 53.43457031 C-10.90708988 56.92673278 -12.62314556 60.42784899 -14.33528614 63.93124771 C-15.66725606 66.64765092 -17.01352845 69.3567828 -18.36365318 72.06420135 C-19.00251338 73.35159823 -19.63601514 74.64166998 -20.26377296 75.93451691 C-24.06552693 83.75001004 -27.37445956 90.34347978 -35.4375 94.375 C-41.04095293 94.97020744 -46.65099855 95.49654174 -51.5 92.25 C-55.69533704 88.57652196 -57.56296686 84.70053245 -57.95776367 79.14770508 C-57.84808039 71.26809036 -53.68936895 64.54477769 -50.17578125 57.69921875 C-49.42400891 56.20164554 -48.67372335 54.70332513 -47.92485046 53.20429993 C-46.35746584 50.07731759 -44.77696232 46.9574729 -43.18579102 43.8425293 C-41.15223247 39.86050473 -39.14537457 35.86576153 -37.14730549 31.86583233 C-35.60166005 28.77590422 -34.04562565 25.69130713 -32.48607445 22.60837746 C-31.7425824 21.13723782 -31.00145999 19.664898 -30.26281166 18.19132042 C-29.22721098 16.13102436 -28.1786738 14.07785088 -27.1262207 12.02612305 C-26.53331741 10.85937546 -25.94041412 9.69262787 -25.32954407 8.49052429 C-19.53020391 -1.0589283 -10.49260861 -4.96014225 0 0 Z " fill="#000000" transform="translate(113.4375,417.625)"/>
<path d="M0 0 C3.76062544 1.90473237 6.42891397 4.47061644 8.26644897 8.27670288 C11.66642964 18.91312149 6.43791523 27.89645592 1.703125 37.125 C0.95368997 38.6211164 0.20580182 40.11800856 -0.5406189 41.6156311 C-2.1024058 44.73738083 -3.678876 47.85108767 -5.26708984 50.95947266 C-7.29578568 54.93163871 -9.29210001 58.91902616 -11.27837563 62.91254234 C-12.81700953 65.99958792 -14.36965664 69.07940965 -15.92686081 72.15712357 C-16.66803793 73.62481861 -17.40556813 75.09436156 -18.13927078 76.56580734 C-19.16853209 78.62326693 -20.21564162 80.67062126 -21.26806641 82.71630859 C-22.15409042 84.46190567 -22.15409042 84.46190567 -23.05801392 86.24276733 C-25.78119656 90.44980554 -28.84960611 93.43264951 -33.5625 95.3828125 C-39.44153288 96.53934356 -43.89109718 96.6390377 -49.0703125 93.3515625 C-52.84801063 90.07371247 -55.08984967 86.25387666 -56.0703125 81.3515625 C-55.66501401 75.60507981 -54.52218881 71.49766139 -51.9309082 66.28051758 C-51.4477137 65.29594826 -51.4477137 65.29594826 -50.95475769 64.29148865 C-49.89721662 62.1451592 -48.8224965 60.00801847 -47.74609375 57.87109375 C-46.99896626 56.37024847 -46.2524915 54.86907809 -45.50663757 53.36759949 C-43.94501508 50.23103768 -42.37464975 47.09905247 -40.7980957 43.9699707 C-38.78420073 39.97077768 -36.79402298 35.96031423 -34.8104372 31.94601917 C-33.27532455 28.84653189 -31.72703426 25.75377287 -30.17482567 22.662817 C-29.43585608 21.18702315 -28.70111024 19.70910613 -27.97078896 18.22901344 C-26.94615014 16.15709873 -25.90385725 14.09502402 -24.85668945 12.03442383 C-24.26902298 10.86164383 -23.68135651 9.68886383 -23.07588196 8.48054504 C-17.79377757 0.23968738 -9.51390719 -2.97982754 0 0 Z " fill="#000000" transform="translate(351.0703125,360.6484375)"/>
<path d="M0 0 C4.35285299 2.27064409 6.94661217 4.87431752 8.9296875 9.31640625 C10.72257688 19.93683708 6.39986847 28.06717424 1.703125 37.1875 C0.9535138 38.68209809 0.20562939 40.17756337 -0.5406189 41.67384338 C-2.1012468 44.7902554 -3.67771912 47.89790764 -5.26708984 50.99975586 C-7.29719311 54.96335396 -9.29313301 58.94297597 -11.27837563 62.92919827 C-12.81685555 66.01203988 -14.36951469 69.08755781 -15.92686081 72.16090584 C-16.66792045 73.62586568 -17.40544977 75.09261721 -18.13927078 76.56121635 C-19.16847698 78.61382653 -20.21556872 80.65627705 -21.26806641 82.69702148 C-22.15409042 84.43809425 -22.15409042 84.43809425 -23.05801392 86.21434021 C-25.68460095 90.26336479 -28.69548694 93.12899347 -33.0703125 95.31640625 C-38.60073302 95.82142968 -43.48061774 96.05447882 -48.5703125 93.69140625 C-53.05619654 89.42981641 -55.31108847 86.35750542 -55.62353516 80.08959961 C-55.48494169 71.59615395 -51.63780645 64.81276423 -47.84375 57.4453125 C-47.0941388 55.95071441 -46.34625439 54.45524913 -45.6000061 52.95896912 C-44.0393782 49.8425571 -42.46290588 46.73490486 -40.87353516 43.63305664 C-38.84343189 39.66945854 -36.84749199 35.68983653 -34.86224937 31.70361423 C-33.32376945 28.62077262 -31.77111031 25.54525469 -30.21376419 22.47190666 C-29.47270455 21.00694682 -28.73517523 19.54019529 -28.00135422 18.07159615 C-26.97214802 16.01898597 -25.92505628 13.97653545 -24.87255859 11.93579102 C-24.28187592 10.77507584 -23.69119324 9.61436066 -23.08261108 8.41847229 C-17.79845726 0.27266616 -9.46295208 -3.12455965 0 0 Z " fill="#000000" transform="translate(255.0703125,416.68359375)"/>
</svg>
