<?xml version="1.0" encoding="UTF-8"?>
<svg version="1.1" xmlns="http://www.w3.org/2000/svg" width="512" height="512">
<path d="M0 0 C4.50262246 3.81041842 8.4449624 7.78135063 12.0625 12.4375 C12.62324219 13.15035156 13.18398438 13.86320312 13.76171875 14.59765625 C30.41293592 37.01131711 36.62259889 63.85335564 32.75390625 91.30859375 C30.440043 106.09180051 24.44612985 119.54786438 17.0625 132.4375 C17.91714844 132.80875 17.91714844 132.80875 18.7890625 133.1875 C29.74416983 139.21092671 35.80664748 151.2378903 39.31640625 162.69921875 C43.39634508 177.67323509 41.16150583 194.67041841 34.0625 208.4375 C24.90149563 223.5839985 11.98998584 232.67535728 -4.84765625 238.046875 C-7.88429683 238.61447137 -10.85063355 238.72748037 -13.9375 238.8125 C-15.154375 238.86148437 -16.37125 238.91046875 -17.625 238.9609375 C-20.9375 238.4375 -20.9375 238.4375 -23.37890625 236.140625 C-24.9375 233.4375 -24.9375 233.4375 -24.875 229.8125 C-23.65645425 225.42573529 -23.65645425 225.42573529 -20.9375 223.4375 C-17.78515625 222.69921875 -17.78515625 222.69921875 -14 222.125 C-2.78386401 220.14448578 7.67730507 215.37896206 15.0625 206.4375 C22.22670159 194.68930735 26.05816466 183.02210119 23.4453125 169.1640625 C20.46331073 158.0541267 14.61101403 149.05803301 4.7890625 142.87109375 C-6.91862705 136.71533148 -18.98769164 136.65054464 -31.9375 136.4375 C-32.17533203 135.32568359 -32.17533203 135.32568359 -32.41796875 134.19140625 C-37.01361381 113.44752773 -43.01783629 94.92846926 -56.9375 78.4375 C-57.85595703 77.34888672 -57.85595703 77.34888672 -58.79296875 76.23828125 C-72.45458416 61.41149608 -93.32007332 52.94661483 -113.15625 52.12109375 C-143.66140787 51.35678201 -170.48736847 58.96191958 -193.125 80.25 C-199.60161876 86.90979585 -204.00151988 95.09322214 -207.9375 103.4375 C-212.80231318 102.96055753 -217.3788352 102.11828129 -222.125 100.9375 C-239.82690082 96.79753932 -256.96888939 98.21190431 -272.6875 107.75 C-285.8494421 116.59317985 -293.64266782 129.52926507 -297.5546875 144.85546875 C-300.11319552 162.11234428 -296.33087033 180.18396711 -286.625 194.6875 C-276.63270379 208.08188421 -264.4707988 215.20964502 -248.65332031 219.91625977 C-242.41329468 221.86672392 -242.41329468 221.86672392 -239.84375 224.94921875 C-238.65331191 228.21779229 -238.93089204 230.13007384 -239.9375 233.4375 C-241.58558216 235.95299383 -242.66310674 236.36494994 -245.58203125 237.13671875 C-249.57447265 237.49459767 -252.70057367 236.68634427 -256.4375 235.4375 C-257.47982788 235.0979126 -257.47982788 235.0979126 -258.54321289 234.75146484 C-269.44616526 231.05643087 -279.15342766 225.92226164 -287.9375 218.4375 C-288.9275 217.715625 -289.9175 216.99375 -290.9375 216.25 C-305.43720065 203.87906427 -312.82606638 183.88787794 -314.9375 165.4375 C-316.34360977 143.60618114 -311.40079158 123.39132436 -296.859375 106.5390625 C-296.22515625 105.84554687 -295.5909375 105.15203125 -294.9375 104.4375 C-294.38578125 103.80585938 -293.8340625 103.17421875 -293.265625 102.5234375 C-282.69467685 91.09674592 -266.0734425 83.36400267 -250.59887695 82.18261719 C-247.16510649 82.1083842 -243.74642197 82.12548787 -240.3125 82.1875 C-238.58773437 82.19523437 -238.58773437 82.19523437 -236.828125 82.203125 C-231.57627782 82.25097782 -226.53844971 82.46047265 -221.34375 83.24609375 C-219.00748493 83.5612715 -219.00748493 83.5612715 -216.9375 83.4375 C-214.46148465 81.64478193 -214.46148465 81.64478193 -213.0625 78.75 C-201.58547952 60.63204226 -182.09554327 48.11458771 -161.9375 41.4375 C-160.6175 41.4375 -159.2975 41.4375 -157.9375 41.4375 C-157.83308594 40.7465625 -157.72867188 40.055625 -157.62109375 39.34375 C-153.07108841 19.99972728 -135.38826702 2.06431042 -119.515625 -8.4296875 C-80.8473255 -32.10371373 -34.97042435 -27.67100426 0 0 Z M-127.56640625 19.703125 C-134.6178715 27.3195144 -134.6178715 27.3195144 -137.9375 36.4375 C-137.08220703 36.42178955 -136.22691406 36.4060791 -135.34570312 36.38989258 C-104.14133191 35.89208456 -75.50526202 38.92606442 -51.93920898 61.49755859 C-50.60133697 62.80682893 -49.26920695 64.12195945 -47.9375 65.4375 C-47.28394531 66.01886719 -46.63039063 66.60023438 -45.95703125 67.19921875 C-31.22566731 80.58217409 -23.94638671 101.81070254 -18.9375 120.4375 C-11.6775 121.4275 -4.4175 122.4175 3.0625 123.4375 C15.8726755 102.15958137 21.59050581 80.62982107 16.03515625 56.03125 C9.82276797 33.07784751 -3.95788088 14.4481598 -24.3828125 2.40625 C-59.84821718 -16.31821421 -99.9969049 -8.70448919 -127.56640625 19.703125 Z " fill="#000000" transform="translate(370.9375,144.5625)"/>
<path d="M0 0 C2.4375 1.5625 2.4375 1.5625 4 4 C4.85569256 10.66584505 2.40361566 15.07637778 -0.6875 20.75 C-1.12255859 21.59949219 -1.55761719 22.44898438 -2.00585938 23.32421875 C-6.16299889 31.12116486 -6.16299889 31.12116486 -11 33 C-14.45152438 32.93096951 -16.25065402 32.64943318 -18.875 30.375 C-20.49162662 26.96212157 -20.35419101 24.78425134 -20 21 C-18.6772088 17.56941692 -16.96402372 14.40204431 -15.1875 11.1875 C-14.73568359 10.32962891 -14.28386719 9.47175781 -13.81835938 8.58789062 C-10.2755862 2.0143655 -8.07125033 -0.8496053 0 0 Z " fill="#000000" transform="translate(264,419)"/>
<path d="M0 0 C3.33943217 0.09107542 3.94802163 0.28706839 6.625 2.5625 C8.45344854 6.06702638 8.56938794 7.50085127 8.125 11.4375 C6.81390294 14.80613648 5.15203014 17.94643136 3.4375 21.125 C2.78491211 22.40600586 2.78491211 22.40600586 2.11914062 23.71289062 C-2.05246258 31.58022526 -2.05246258 31.58022526 -6.875 33.4375 C-9.98064495 33.3132742 -12.04823836 32.90599826 -14.75 31.375 C-16.60006204 28.18878205 -16.39559272 24.97612349 -15.875 21.4375 C-14.55977073 17.96516766 -12.82090606 14.79297797 -11 11.5625 C-10.53980469 10.70914062 -10.07960938 9.85578125 -9.60546875 8.9765625 C-5.01433315 0.56613439 -5.01433315 0.56613439 0 0 Z " fill="#000000" transform="translate(319.875,418.5625)"/>
<path d="M0 0 C2.4375 1.5 2.4375 1.5 4 4 C4.78801972 11.13945866 2.70490603 15.6772426 -0.6875 21.875 C-1.12255859 22.72835938 -1.55761719 23.58171875 -2.00585938 24.4609375 C-5.26647986 30.56675126 -5.26647986 30.56675126 -8.671875 32.578125 C-11.54084834 33.09800608 -13.24712631 32.98821107 -16 32 C-18.74481537 29.99702662 -19.85733311 28.87932187 -20.40625 25.49609375 C-19.80829944 20.3502692 -17.55075953 16.31217555 -15.1875 11.75 C-14.73568359 10.83992188 -14.28386719 9.92984375 -13.81835938 8.9921875 C-10.35881344 2.18420514 -8.29746316 -0.87341717 0 0 Z " fill="#000000" transform="translate(204,419)"/>
<path d="M0 0 C2.5926752 1.50542431 2.89555708 2.68273001 3.828125 5.515625 C4.07935341 10.60871013 2.05913209 14.13863793 -0.1875 18.625 C-0.58775391 19.470625 -0.98800781 20.31625 -1.40039062 21.1875 C-5.33620726 29.27601783 -5.33620726 29.27601783 -9 32 C-11.76579986 32.78328316 -14.20756282 32.65099763 -17 32 C-19.5625 29.9375 -19.5625 29.9375 -21 27 C-20.78616628 20.54386664 -18.11139554 15.71820529 -15.0625 10.125 C-14.60681641 9.25875 -14.15113281 8.3925 -13.68164062 7.5 C-10.0796033 0.77057156 -8.03301341 -0.88889902 0 0 Z " fill="#000000" transform="translate(239,368)"/>
<path d="M0 0 C2.97819304 0.09205324 4.02122686 0.31014179 6.625 1.9375 C8.7484325 5.38807781 8.53184896 7.33044268 8.125 11.375 C6.77670146 14.80391251 5.04355056 17.97343763 3.25 21.1875 C2.78980469 22.04537109 2.32960938 22.90324219 1.85546875 23.78710938 C-1.53802711 30.03802711 -1.53802711 30.03802711 -3.875 32.375 C-10.8023743 33.04539106 -10.8023743 33.04539106 -14.375 30.8125 C-16.4984325 27.36192219 -16.28184896 25.41955732 -15.875 21.375 C-14.52670146 17.94608749 -12.79355056 14.77656237 -11 11.5625 C-10.30970703 10.27569336 -10.30970703 10.27569336 -9.60546875 8.96289062 C-5.00251383 0.48411424 -5.00251383 0.48411424 0 0 Z " fill="#000000" transform="translate(293.875,367.625)"/>
<path d="M0 0 C2.5625 2.0625 2.5625 2.0625 4 5 C3.78616628 11.45613336 1.11139554 16.28179471 -1.9375 21.875 C-2.39318359 22.74125 -2.84886719 23.6075 -3.31835938 24.5 C-6.72362393 30.86181196 -6.72362393 30.86181196 -9 32 C-16.24905375 32.46025738 -16.24905375 32.46025738 -18.9375 30.8125 C-20.67683787 27.84539421 -21.27544223 25.15037638 -20.46875 21.78125 C-10.45716228 -1.7944243 -10.45716228 -1.7944243 0 0 Z " fill="#000000" transform="translate(179,368)"/>
<path d="M0 0 C3.59940938 0.91984906 7.15047912 1.96057916 10.6875 3.09375 C11.66952393 3.40675049 11.66952393 3.40675049 12.67138672 3.72607422 C16.02840785 4.8688714 18.65762475 5.82527793 20.8125 8.71875 C21.85474273 11.76530567 21.9370743 13.30669654 21 16.40625 C19.8125 18.71875 19.8125 18.71875 17.8125 20.71875 C11.49751566 21.71436314 5.80996622 20.14995174 -0.0625 17.96875 C-0.80757812 17.71609375 -1.55265625 17.4634375 -2.3203125 17.203125 C-6.32944464 15.76099114 -9.13626107 14.68813221 -11.1875 10.71875 C-11.86984041 6.7100001 -11.5033333 5.19759404 -9.25 1.78125 C-5.82322461 -0.52657833 -4.03166909 -0.70826619 0 0 Z " fill="#000000" transform="translate(168.1875,166.28125)"/>
<path d="M0 0 C3.5 0.8125 3.5 0.8125 5.375 2 C7.0686377 4.72863852 7.43794065 6.58541357 7.5 9.8125 C4.77631649 16.00268981 -1.39249253 26.75874627 -7.5 29.8125 C-11.29877599 30.16423852 -13.64360153 30.33951444 -16.9375 28.3125 C-19.11065853 24.83544635 -19.23999047 21.75391382 -18.5 17.8125 C-16.91958172 14.72079561 -14.87300177 12.12463366 -12.6875 9.4375 C-12.14029297 8.72722656 -11.59308594 8.01695313 -11.02929688 7.28515625 C-5.1125872 -0.2738886 -5.1125872 -0.2738886 0 0 Z " fill="#000000" transform="translate(393.5,92.1875)"/>
<path d="M0 0 C6.24911082 2.00864276 9.6472221 7.34816954 13.3125 12.5625 C13.92254883 13.38331055 13.92254883 13.38331055 14.54492188 14.22070312 C17.1871343 17.97308884 18.15071759 20.55709138 17.5 25.125 C15.03959272 28.45378632 13.60389613 29.91801948 9.5 30.6875 C3.19744958 29.5057718 -0.25770801 24.2365452 -3.8125 19.3125 C-4.26689453 18.72146484 -4.72128906 18.13042969 -5.18945312 17.52148438 C-8.22965572 13.329205 -9.19411937 10.45300884 -8.5 5.125 C-5.87640532 1.30886228 -4.67809975 0.16707499 0 0 Z " fill="#000000" transform="translate(219.5,91.875)"/>
<path d="M0 0 C1.49588695 0.51654641 2.98937508 1.04008838 4.48046875 1.5703125 C5.24294922 1.82683594 6.00542969 2.08335937 6.79101562 2.34765625 C12.42447867 4.33007737 12.42447867 4.33007737 14.66796875 7.6953125 C15.21419939 11.21388912 15.36846655 14.55239503 13.48046875 17.6328125 C10.50683245 19.37597861 7.73377771 19.85832512 4.32788086 19.33740234 C1.74763595 18.59973626 -0.82706471 17.85147391 -3.39453125 17.0703125 C-4.29236328 16.82152344 -5.19019531 16.57273437 -6.11523438 16.31640625 C-11.24892062 14.78202568 -14.55372606 13.58235902 -17.33203125 8.6953125 C-17.83203125 5.6328125 -17.83203125 5.6328125 -17.33203125 2.6953125 C-12.15297374 -3.69219176 -7.28704708 -2.33146703 0 0 Z " fill="#000000" transform="translate(439.33203125,254.3046875)"/>
<path d="M0 0 C1.52398926 2.37064996 1.99319981 3.91629587 2.125 6.75 C1.10932081 9.80106805 0.24509668 12.05876336 -2.57177734 13.79711914 C-4.68799774 14.69856802 -6.80726074 15.43075902 -9 16.125 C-10.0828125 16.51365234 -10.0828125 16.51365234 -11.1875 16.91015625 C-16.32530725 18.63799534 -21.45839902 19.58156853 -26.875 18.75 C-29.5 16.6875 -29.5 16.6875 -30.875 13.75 C-30.77333314 7.85332191 -30.77333314 7.85332191 -28.56542969 5.14160156 C-25.51663208 2.63175951 -21.83100541 1.72739086 -18.125 0.5 C-17.33867187 0.21898437 -16.55234375 -0.06203125 -15.7421875 -0.3515625 C-10.35359992 -2.15969322 -5.0892651 -3.3928434 0 0 Z " fill="#000000" transform="translate(452.875,168.25)"/>
<path d="M0 0 C4.35154118 4.43192756 3.4772923 9.59526698 3.4375 15.4375 C3.4674707 16.99307617 3.4674707 16.99307617 3.49804688 18.58007812 C3.49512108 23.13554182 3.4712982 26.15580652 1.22265625 30.18359375 C-1.1019358 32.0833043 -2.04074071 32.68279803 -5 32.625 C-5.99 32.64433594 -5.99 32.64433594 -7 32.6640625 C-10.37618192 31.5430646 -11.26384032 30.10982448 -13 27 C-13.56043791 23.13501503 -13.51260771 19.33583227 -13.4375 15.4375 C-13.44458984 14.39658203 -13.45167969 13.35566406 -13.45898438 12.28320312 C-13.38586677 3.53721267 -13.38586677 3.53721267 -10 0 C-6.20519658 -1.26493447 -3.87641726 -0.89988258 0 0 Z " fill="#000000" transform="translate(315,63)"/>
</svg>
