<?xml version="1.0" encoding="UTF-8"?>
<svg version="1.1" xmlns="http://www.w3.org/2000/svg" width="512" height="512">
<path d="M0 0 C3.74150444 0.70153208 5.2331464 1.96993639 8 4.5625 C9.51171875 7.296875 9.51171875 7.296875 10.6875 10.3125 C11.28111328 11.78976563 11.28111328 11.78976563 11.88671875 13.296875 C14.51989512 21.02085901 15.35917833 27.67913384 15.3125 35.8125 C15.30404053 37.34547729 15.30404053 37.34547729 15.29541016 38.90942383 C14.97011384 59.11483431 6.03661037 74.24609534 -8.203125 88.140625 C-21.04049777 99.25678578 -38.83905074 107.0550348 -56 106.5625 C-56.24105469 107.12453125 -56.48210937 107.6865625 -56.73046875 108.265625 C-63.76238257 120.98797986 -79.67246154 129.20213891 -93 133.5625 C-95.72053863 134.12595004 -98.21863471 134.40203662 -101 134.5625 C-100.95359375 135.26632813 -100.9071875 135.97015625 -100.859375 136.6953125 C-100.22086925 154.16300558 -107.45223449 169.77251051 -119.0234375 182.51953125 C-131.03360566 195.1235224 -148.55433821 204.23260736 -166.14453125 204.734375 C-169.76650917 204.77518957 -173.38014402 204.69768134 -177 204.5625 C-177.13159515 205.28730057 -177.26319031 206.01210114 -177.39877319 206.75886536 C-177.96868931 209.41649232 -178.71546014 211.85991009 -179.61962891 214.4206543 C-179.95213654 215.36752106 -180.28464417 216.31438782 -180.62722778 217.28994751 C-180.99000824 218.31188202 -181.3527887 219.33381653 -181.7265625 220.38671875 C-182.10585907 221.46343842 -182.48515564 222.54015808 -182.87594604 223.64950562 C-184.12221903 227.18421843 -185.37348219 230.71714113 -186.625 234.25 C-187.49694138 236.71859919 -188.36868426 239.1872685 -189.24023438 241.65600586 C-195.18100514 258.47204703 -201.14525196 275.2798815 -207.16938782 292.06625366 C-207.47056015 292.9054837 -207.77173248 293.74471375 -208.08203125 294.609375 C-208.38566086 295.45529205 -208.68929047 296.30120911 -209.00212097 297.17276001 C-211.25728053 303.46534701 -213.48666938 309.76678619 -215.70858765 316.07118225 C-217.43644029 320.9697321 -219.17212486 325.8654893 -220.90869141 330.76095581 C-221.75512126 333.15305336 -222.59811009 335.54637154 -223.4375 337.94094849 C-224.60948469 341.28290673 -225.7936336 344.62032318 -226.98046875 347.95703125 C-227.32776535 348.95708191 -227.67506195 349.95713257 -228.03288269 350.98748779 C-229.76136972 355.80888454 -231.30521465 359.86296007 -235 363.5625 C-238.47454134 365.02546477 -239.72080658 364.67525119 -243.25 363.25 C-246 361.5625 -246 361.5625 -247 359.5625 C-247.26765523 354.72739895 -246.75709253 351.0106822 -245.12670898 346.4675293 C-244.7140831 345.30069611 -244.30145721 344.13386292 -243.87632751 342.93167114 C-243.41646172 341.66660988 -242.95637741 340.40162804 -242.49609375 339.13671875 C-242.0205262 337.80469533 -241.54594356 336.4723199 -241.07228088 335.13961792 C-239.80297478 331.57675905 -238.52031213 328.01884679 -237.23504639 324.46171951 C-235.8980272 320.75395846 -234.57361635 317.04170034 -233.24804688 313.32983398 C-231.13909128 307.42882625 -229.02348841 301.53025033 -226.90185547 295.63378906 C-224.47643093 288.89276196 -222.06314578 282.14749968 -219.66015625 275.3984375 C-217.28745954 268.73651593 -214.91104688 262.07596073 -212.52734375 255.41796875 C-208.87552188 245.21772113 -205.231783 235.01459284 -201.58862305 224.81124878 C-199.97728753 220.29856047 -198.36558992 215.78600148 -196.75390625 211.2734375 C-196.21557433 209.76611394 -195.67724405 208.25878979 -195.13891602 206.75146484 C-194.57515259 205.17292725 -194.57515259 205.17292725 -194 203.5625 C-195.89332534 202.74417278 -197.78977733 201.93307732 -199.6875 201.125 C-200.74324219 200.67253906 -201.79898437 200.22007812 -202.88671875 199.75390625 C-205.64097338 198.69989413 -208.07653224 197.91031115 -211 197.5625 C-213.13385772 198.71667718 -213.13385772 198.71667718 -215.0625 200.5625 C-236.99545862 218.70769439 -265.33291139 222.99090039 -293 221.5625 C-298.7506771 220.96771506 -304.36378368 219.82525885 -310 218.5625 C-311.00417969 218.34980469 -312.00835937 218.13710938 -313.04296875 217.91796875 C-315.0336992 217.48895862 -317.0181752 217.03093132 -319 216.5625 C-320.98 222.1725 -322.96 227.7825 -325 233.5625 C-322.2053125 233.58828125 -319.410625 233.6140625 -316.53125 233.640625 C-313.80393702 233.67911342 -311.07680878 233.72425165 -308.34960938 233.77001953 C-306.46428346 233.79812497 -304.57884201 233.81939106 -302.69335938 233.83349609 C-299.972059 233.85507089 -297.25213269 233.90179349 -294.53125 233.953125 C-293.28075867 233.95496796 -293.28075867 233.95496796 -292.00500488 233.95684814 C-285.18574682 234.12488373 -280.02447904 236.05439543 -274.7578125 240.421875 C-269.4852753 246.52691807 -267.6979094 251.38175055 -268 259.4375 C-269.55672863 270.51872958 -278.52936631 279.30161251 -285.24609375 287.78515625 C-287.76348881 290.96870887 -290.23159637 294.18177105 -292.66015625 297.43359375 C-293.24273193 298.21081787 -293.82530762 298.98804199 -294.42553711 299.78881836 C-295.53522026 301.27344402 -296.6391752 302.76237338 -297.73657227 304.25610352 C-298.23858154 304.92440186 -298.74059082 305.5927002 -299.2578125 306.28125 C-299.6923877 306.86841797 -300.12696289 307.45558594 -300.57470703 308.06054688 C-302.25455394 309.83074526 -303.73361015 310.67328916 -306 311.5625 C-309.86052755 311.48207234 -311.50927221 310.99031397 -314.4375 308.4375 C-316.57000615 304.51368868 -316.12186938 302.87973277 -315 298.5625 C-313.09912842 295.44425779 -310.82775816 292.68309875 -308.5 289.875 C-307.21795501 288.28058683 -305.93670568 286.68553356 -304.65625 285.08984375 C-304.02976562 284.31753418 -303.40328125 283.54522461 -302.7578125 282.74951172 C-299.70237658 278.94804019 -296.81066036 275.03098403 -293.90625 271.11328125 C-292.67774104 269.46939529 -291.42903094 267.84032092 -290.15625 266.23046875 C-286.19718926 261.45809209 -286.19718926 261.45809209 -285 255.5625 C-286.13066143 253.3662252 -286.13066143 253.3662252 -288 251.5625 C-290.31314402 250.96751509 -290.31314402 250.96751509 -292.94287109 251.06420898 C-293.94756439 251.05417343 -294.95225769 251.04413788 -295.98739624 251.03379822 C-297.07178986 251.04198074 -298.15618347 251.05016327 -299.2734375 251.05859375 C-300.94728012 251.0444619 -300.94728012 251.0444619 -302.65493774 251.03004456 C-306.22847748 251.00130952 -309.80135384 250.9983193 -313.375 251 C-316.94140855 250.99639514 -320.50733179 250.98687665 -324.07363892 250.95924377 C-326.29393374 250.94243078 -328.51438828 250.93959874 -330.73471069 250.95225525 C-340.17731165 250.88796516 -340.17731165 250.88796516 -344 247.5625 C-346.4539913 242.6545174 -344.91204371 237.82711152 -343.28759766 232.89013672 C-342.5077238 230.67015001 -341.7158394 228.45435793 -340.9140625 226.2421875 C-340.49708099 225.06536407 -340.08009949 223.88854065 -339.65048218 222.67605591 C-338.54450563 219.561453 -337.42902407 216.45047782 -336.30889893 213.34094238 C-335.17395873 210.18215212 -334.05266339 207.0185273 -332.9296875 203.85546875 C-331.28267693 199.22690242 -329.63260503 194.59949215 -327.97119141 189.97607422 C-327.63809967 189.04898651 -327.30500793 188.1218988 -326.96182251 187.16671753 C-326.01855098 184.61272837 -325.02331202 182.08535896 -324 179.5625 C-324.66 179.8925 -325.32 180.2225 -326 180.5625 C-338.62999026 181.6029015 -351.99447654 179.37781466 -364 175.5625 C-364.23468994 176.76382568 -364.46937988 177.96515137 -364.71118164 179.20288086 C-366.16908299 185.73977357 -368.42097953 192.00023795 -370.62109375 198.31640625 C-371.08556481 199.6616283 -371.54958955 201.00700452 -372.01319885 202.3525238 C-373.23597521 205.89759689 -374.46457633 209.44062325 -375.69451904 212.98321533 C-376.90320168 216.46747413 -378.10675131 219.9535035 -379.31054688 223.43945312 C-380.98500931 228.28698362 -382.66115675 233.13392495 -384.33942604 237.98013878 C-387.64729017 247.53292222 -390.93792443 257.09158402 -394.22265625 266.65234375 C-394.46620787 267.36122805 -394.70975948 268.07011234 -394.96069145 268.80047798 C-396.30756 272.72100358 -397.65398564 276.64168104 -399 280.5625 C-398.4097554 280.55139694 -397.8195108 280.54029388 -397.21138 280.52885437 C-391.06335597 280.4181634 -384.91561533 280.34279255 -378.7668457 280.2878418 C-376.47278342 280.26271072 -374.1788011 280.22860031 -371.88500977 280.18530273 C-368.58589951 280.12459168 -365.28784854 280.09627563 -361.98828125 280.07421875 C-360.96414627 280.04841232 -359.94001129 280.0226059 -358.88484192 279.99601746 C-354.36719956 279.9942414 -351.70308535 280.15017893 -347.75073242 282.46801758 C-343.2783445 290.37312382 -348.31845419 301.73393074 -350.37890625 309.99609375 C-350.71447361 311.36450007 -351.04933548 312.73307957 -351.38352966 314.1018219 C-352.25730529 317.67435482 -353.13855895 321.24499441 -354.02209473 324.81512451 C-355.44109823 330.55220025 -356.85086638 336.29153332 -358.25620842 342.03196907 C-358.7470995 344.03087669 -359.24263847 346.02859074 -359.73866272 348.02622986 C-360.03574631 349.23501297 -360.3328299 350.44379608 -360.63891602 351.68920898 C-360.9023732 352.75380844 -361.16583038 353.8184079 -361.43727112 354.91526794 C-362.10396333 357.60050861 -362.10396333 357.60050861 -362 360.5625 C-360.67883745 358.8348259 -359.35769253 357.10713831 -358.03662109 355.37939453 C-356.87707968 353.86322271 -355.7172439 352.34727596 -354.55712891 350.83154297 C-351.48042825 346.81084519 -348.40869403 342.78654468 -345.34765625 338.75390625 C-344.7652417 337.98812256 -344.18282715 337.22233887 -343.58276367 336.43334961 C-342.46262683 334.96027759 -341.34423788 333.48587448 -340.2277832 332.01000977 C-339.71691162 331.33897217 -339.20604004 330.66793457 -338.6796875 329.9765625 C-338.23351074 329.3882666 -337.78733398 328.7999707 -337.32763672 328.19384766 C-333.61404022 323.63072669 -333.61404022 323.63072669 -329.0625 323.125 C-326.12575166 323.25480103 -325.06839041 323.51975599 -322.5 325.125 C-320.44015893 328.47224173 -320.66897182 330.67705672 -321 334.5625 C-322.40625 337.1328125 -322.40625 337.1328125 -324.5 339.6875 C-325.31984375 340.71746094 -326.1396875 341.74742187 -326.984375 342.80859375 C-327.45681641 343.39237793 -327.92925781 343.97616211 -328.41601562 344.57763672 C-330.8996795 347.68987274 -333.29337939 350.86931211 -335.69775391 354.04296875 C-337.76169966 356.76543253 -339.83724734 359.47875192 -341.9140625 362.19140625 C-344.54474952 365.63511323 -347.14312684 369.09903169 -349.7109375 372.58984375 C-350.5776709 373.75640503 -350.5776709 373.75640503 -351.46191406 374.9465332 C-352.53872829 376.3975135 -353.60643349 377.85531702 -354.66308594 379.32104492 C-357.67340219 383.3519684 -360.14642373 385.75404419 -365 387.5625 C-370.23955679 388.12388108 -373.56777353 387.41882372 -378 384.5625 C-382.05514795 380.72654924 -382.82391134 376.97983745 -383 371.5625 C-382.60047316 368.88664562 -382.13460804 366.45928647 -381.46118164 363.86132812 C-381.2857634 363.13839569 -381.11034515 362.41546326 -380.92961121 361.67062378 C-380.35293556 359.30820904 -379.75677529 356.95119923 -379.16015625 354.59375 C-378.75394507 352.94638535 -378.34897004 351.29871543 -377.94517517 349.65075684 C-376.88393487 345.33391396 -375.80604768 341.02139996 -374.72454834 336.70959473 C-373.62196541 332.30109267 -372.53530434 327.88867214 -371.44726562 323.4765625 C-369.31367327 314.8346501 -367.16246006 306.19723053 -365 297.5625 C-366.61841797 297.54848145 -366.61841797 297.54848145 -368.26953125 297.53417969 C-372.30297938 297.49406792 -376.33568163 297.42825227 -380.36865234 297.35498047 C-382.10846314 297.32689297 -383.84839865 297.30561806 -385.58837891 297.29150391 C-388.1012297 297.26990347 -390.61260033 297.22317014 -393.125 297.171875 C-394.27705933 297.17003204 -394.27705933 297.17003204 -395.45239258 297.16815186 C-402.27232853 296.98646259 -407.68806416 294.99299665 -412.4375 290 C-416.06137946 284.34674804 -415.84573027 277.4686865 -414.45501709 271.04537964 C-413.69179865 268.56613683 -412.83801674 266.14461191 -411.9296875 263.71484375 C-411.61097687 262.81866837 -411.29226624 261.92249298 -410.96389771 260.99916077 C-409.95041969 258.15998837 -408.91363217 255.33005445 -407.875 252.5 C-407.20148488 250.63144974 -406.52959828 248.76231165 -405.859375 246.89257812 C-404.8688258 244.12976813 -403.87717061 241.36743582 -402.87860107 238.60751343 C-399.76153785 229.97733078 -396.85243212 221.28319594 -394 212.5625 C-395.07362793 212.5833667 -396.14725586 212.6042334 -397.25341797 212.62573242 C-412.96129339 212.88044928 -427.08695087 210.34489764 -442 205.5625 C-445.02408815 212.94153708 -447.7821445 220.39553381 -450.44921875 227.91015625 C-450.8661348 229.07969345 -451.28305084 230.24923065 -451.71260071 231.45420837 C-453.03937822 235.17716348 -454.36354872 238.90103902 -455.6875 242.625 C-456.55645392 245.06582168 -457.42559314 247.50657741 -458.29492188 249.94726562 C-458.93749435 251.75147476 -458.93749435 251.75147476 -459.5930481 253.59213257 C-460.88049304 257.20518458 -462.16944827 260.81769538 -463.45849609 264.43017578 C-465.16275375 269.20678971 -466.857018 273.98679993 -468.54541016 278.76904297 C-469.34913379 281.03227986 -470.15300105 283.29546575 -470.95703125 285.55859375 C-471.32132736 286.59734146 -471.68562347 287.63608917 -472.06095886 288.70631409 C-472.40411636 289.66875534 -472.74727386 290.63119659 -473.10083008 291.62280273 C-473.54438591 292.87830177 -473.54438591 292.87830177 -473.99690247 294.15916443 C-476.84607516 300.98553758 -476.84607516 300.98553758 -480 302.5625 C-483.65546065 302.96866229 -485.58917682 302.77684253 -488.875 301.0625 C-491.27655167 298.2371451 -491.46890833 296.7556691 -491.36126709 293.1192627 C-490.54945676 287.37391131 -488.3018777 281.97388484 -486.3203125 276.546875 C-485.82749992 275.16846439 -485.33581415 273.78965047 -484.84518433 272.41046143 C-483.54823337 268.77415015 -482.2362724 265.14343582 -480.92095947 261.51373291 C-479.62331832 257.9250949 -478.33947736 254.3315357 -477.0546875 250.73828125 C-475.03761622 245.10215679 -473.0127689 239.46889334 -470.98144531 233.83789062 C-468.05174596 225.71555379 -465.14385203 217.58551327 -462.2421875 209.453125 C-461.81205353 208.24791199 -461.38191956 207.04269897 -460.93875122 205.80096436 C-459.95888791 203.05490916 -458.97927859 200.30876376 -458 197.5625 C-459.58329454 196.29552444 -461.16663729 195.02860912 -462.75 193.76171875 C-463.63171875 193.05619873 -464.5134375 192.35067871 -465.421875 191.6237793 C-467.0141635 190.35070242 -468.60874835 189.08048444 -470.20703125 187.81494141 C-483.42410227 177.2002512 -493.39469491 160.08284145 -496.59765625 143.4609375 C-499.13890678 118.8379469 -495.66672221 96.76235611 -479.9375 77 C-477.31938059 74.30349378 -475.53888271 73.00212528 -471.75 72.75 C-468 73.5625 -468 73.5625 -465.5 75.125 C-463.42050785 78.50417474 -463.62637313 80.63325913 -464 84.5625 C-465.79296875 87.703125 -465.79296875 87.703125 -468.1875 90.8125 C-479.08550164 105.55735746 -481.59757638 120.54065991 -480 138.5625 C-477.17134733 155.28083728 -466.78969417 169.92372013 -453.3125 179.75 C-433.37142466 193.7114151 -410.85155959 197.51756048 -387 194.5625 C-386.84144531 193.93085938 -386.68289063 193.29921875 -386.51953125 192.6484375 C-384.46381355 184.76629338 -381.81997863 177.19762001 -379 169.5625 C-380.21236328 168.67498047 -380.21236328 168.67498047 -381.44921875 167.76953125 C-382.52880822 166.97157382 -383.60822616 166.17338428 -384.6875 165.375 C-385.74324219 164.59769531 -386.79898438 163.82039062 -387.88671875 163.01953125 C-390.82563741 160.70010862 -393.41207919 158.2623309 -396 155.5625 C-396.33 155.2325 -396.66 154.9025 -397 154.5625 C-397.70119522 147.43368194 -397.70119522 147.43368194 -394.9375 144 C-392.01773961 142.57118109 -390.20076435 142.02054741 -386.9921875 142.6953125 C-383.46168322 144.23212025 -380.7747373 146.90324257 -377.8515625 149.3671875 C-366.47682784 158.12417501 -351.28212332 162.93700555 -337 163.5625 C-336.21109375 163.6140625 -335.4221875 163.665625 -334.609375 163.71875 C-320.5836196 164.22266936 -306.26983791 160.88212827 -293.828125 154.4375 C-291.01682751 153.09192171 -289.07103217 153.12378112 -286 153.5625 C-282.33099171 156.19461465 -281.15990469 157.65104326 -280.375 162.125 C-281 165.5625 -281 165.5625 -283 167.75 C-289.84394791 171.8848852 -297.8129939 176.5625 -306 176.5625 C-306.226875 177.75875 -306.45375 178.955 -306.6875 180.1875 C-308.14819347 186.8512476 -310.62240483 193.18292213 -313 199.5625 C-288.83714217 208.42221454 -262.23718313 206.09397188 -239 195.5625 C-220.02309887 186.25265557 -208.33248178 171.62239737 -201.3125 151.9375 C-200.08992294 148.79373043 -199.54473471 147.58156181 -197 145.5625 C-190.15037264 144.69270605 -190.15037264 144.69270605 -186.4375 147.5 C-183.91655309 152.87071298 -185.22884808 157.14499993 -186.984375 162.6484375 C-189.67324752 169.9991864 -193.06072701 176.80752673 -197 183.5625 C-181.88800693 189.73966505 -165.14654239 189.63305904 -150 183.5625 C-135.14577158 177.05073996 -125.91915816 166.14014724 -119.9453125 151.32421875 C-115.92565241 139.58083163 -116.78300109 125.73718284 -122 114.5625 C-130.08289497 98.80539577 -142.00915919 89.89278027 -158.75 84.3125 C-172.17594156 81.50178459 -185.82354365 82.15380119 -198.625 87.25 C-202.15633607 88.62329736 -204.26848634 89.22588021 -208 88.5625 C-211.32274404 86.10655875 -212.77618008 84.6368356 -213.625 80.5625 C-212.78400783 76.52573759 -211.09877315 75.23967136 -208 72.5625 C-197.00533756 67.25047208 -185.12376801 65.1583744 -173 65.5625 C-177.25029319 55.97361058 -177.25029319 55.97361058 -183.4375 47.625 C-186 44.5625 -186 44.5625 -186.625 40.875 C-185.89831374 37.02356281 -185.18465468 35.80036545 -182 33.5625 C-178.98659352 32.40349751 -177.6349014 32.31188103 -174.625 33.5 C-168.22488082 38.52866507 -164.32490006 44.36671955 -160.6875 51.5625 C-160.35000732 52.22660889 -160.01251465 52.89071777 -159.66479492 53.57495117 C-157.9815853 57.03968177 -156.86511439 60.06445749 -156.234375 63.87109375 C-155.36609137 67.84519406 -155.36609137 67.84519406 -151.69140625 69.41015625 C-150.32357646 69.84285928 -148.94631352 70.24651567 -147.5625 70.625 C-146.09847883 71.10130098 -144.63750388 71.58706456 -143.1796875 72.08203125 C-142.46393555 72.3238916 -141.74818359 72.56575195 -141.01074219 72.81494141 C-125.08541044 78.73569976 -113.15108002 93.28953102 -106 108.15625 C-104.57759058 111.57892267 -103.73919528 114.93372318 -103 118.5625 C-85.67552845 113.07430974 -73.16625851 105.02619815 -63.76171875 89.0625 C-59.98535853 81.56001938 -58.01181251 73.86844553 -57.5625 65.5 C-57.31198925 61.72563803 -57.06469835 60.65954753 -54.875 57.375 C-51.22521141 55.07404633 -49.241553 54.86842769 -45 55.5625 C-42.12371716 57.72357118 -41.11755451 58.91508582 -40.46875 62.48828125 C-40.55466939 71.79979564 -42.22833107 79.72780529 -45 88.5625 C-35.25984039 85.09232168 -27.00412276 81.30769617 -19 74.5625 C-18.34515625 74.01980469 -17.6903125 73.47710937 -17.015625 72.91796875 C-8.05956652 64.77429611 -2.38551583 53.11242066 -1.6875 41.1015625 C-1.32666689 30.87423085 -2.27695934 22.64022394 -7.10546875 13.4609375 C-8.4478592 10.61202151 -8.44401112 8.67057787 -8 5.5625 C-5.53959272 2.23371368 -4.10389613 0.76948052 0 0 Z M-364 361.5625 C-363 363.5625 -363 363.5625 -363 363.5625 Z " fill="#000000" transform="translate(497,95.4375)"/>
<path d="M0 0 C12.57106679 10.03010648 23.82487781 22.44161087 27.9375 38.34375 C28.65292969 38.43011719 29.36835938 38.51648437 30.10546875 38.60546875 C41.36401532 40.19302577 51.63482299 43.72453751 60.9375 50.34375 C62.50180248 53.47235495 62.29377284 55.89977925 61.9375 59.34375 C59.46154121 62.18382038 57.966356 63.23792481 54.203125 63.625 C50.24970997 63.2845145 47.41296541 62.05873143 43.8125 60.40625 C38.52253149 57.93956061 38.52253149 57.93956061 32.9375 56.34375 C32.77314453 57.90222656 32.77314453 57.90222656 32.60546875 59.4921875 C30.49157875 78.51263188 30.49157875 78.51263188 26.1875 84.96875 C22.86559514 86.99880297 20.75447144 86.9464297 16.9375 86.34375 C13.9375 84.34375 13.9375 84.34375 11.9375 81.34375 C12.00849262 77.01320004 12.83925216 73.69628638 14 69.53125 C17.36064812 56.47054934 13.43128376 43.85521506 6.9609375 32.45703125 C3.78494519 27.5704176 0.08370727 23.42296289 -4.0625 19.34375 C-4.62582031 18.78171875 -5.18914062 18.2196875 -5.76953125 17.640625 C-22.38974232 2.2740065 -43.41724209 -0.47425064 -65.04931641 0.17333984 C-82.94876192 1.18564036 -100.79662886 11.23848139 -112.8125 24.21875 C-117.28717158 29.57991312 -120.72455337 35.56874958 -123.75 41.84375 C-125.0625 44.34375 -125.0625 44.34375 -128.0625 46.34375 C-132.87602635 46.95824273 -136.25294102 46.03255184 -140.8125 44.40625 C-154.76271892 39.54271214 -168.17477048 41.21629977 -181.63671875 47.02734375 C-183.9027467 48.25705618 -185.37995428 49.41360557 -187.0625 51.34375 C-186.33546875 51.60027344 -185.6084375 51.85679688 -184.859375 52.12109375 C-173.85039089 56.93368038 -164.55024903 67.62723033 -158.125 77.53125 C-157.74722412 78.11342285 -157.36944824 78.6955957 -156.98022461 79.29541016 C-154.75728804 82.86083202 -153.23093487 86.31234383 -152.0625 90.34375 C-151.49265381 90.18438965 -150.92280762 90.0250293 -150.33569336 89.86083984 C-146.46346062 88.9800119 -142.58211522 89.03475192 -138.625 88.96875 C-137.3555957 88.91267578 -137.3555957 88.91267578 -136.06054688 88.85546875 C-131.57709255 88.79227206 -129.67464011 88.87624069 -126.00390625 91.6796875 C-124.0625 94.34375 -124.0625 94.34375 -123.4375 97.34375 C-124.29312853 101.45076693 -125.78344692 102.75570156 -129.0625 105.34375 C-131.85770095 106.0272138 -134.56943546 106.04378525 -137.4375 106.03125 C-143.03788922 106.09556542 -147.65681751 106.64330887 -153.0625 108.34375 C-159.28135618 108.97617605 -159.28135618 108.97617605 -162.09375 106.69921875 C-164.33500864 104.01771288 -165.51836833 101.49885191 -166.875 98.28125 C-175.18064309 79.7389018 -187.99650002 66.93556987 -206.875 59.40625 C-226.1614648 52.29802849 -248.00626344 53.21433748 -266.61621094 61.77294922 C-273.05351951 64.89495759 -278.73506783 68.58416428 -284.0625 73.34375 C-284.74828125 73.94832031 -285.4340625 74.55289063 -286.140625 75.17578125 C-297.96663915 86.25702734 -303.67159265 100.79519921 -307.0625 116.34375 C-306.051875 116.405625 -305.04125 116.4675 -304 116.53125 C-299.64298866 117.07782848 -295.5400011 118.30715292 -291.375 119.65625 C-290.41291626 119.95728638 -290.41291626 119.95728638 -289.43139648 120.2644043 C-285.292818 121.65109404 -282.24213391 123.35288842 -279.0625 126.34375 C-277.59953523 129.81829134 -277.94974881 131.06455658 -279.375 134.59375 C-281.0625 137.34375 -281.0625 137.34375 -283.0625 138.34375 C-288.36441527 138.69547411 -292.23632897 137.81875559 -297.1875 135.96875 C-317.39854091 128.82231845 -338.6417527 129.74682359 -358.1953125 138.35546875 C-361.38058557 139.45338985 -363.71646444 139.67370628 -367.0625 139.34375 C-370.38524404 136.88780875 -371.83868008 135.4180856 -372.6875 131.34375 C-372.05312131 128.2987323 -371.34109631 126.6276048 -368.98828125 124.56640625 C-355.7701259 116.17435225 -338.40364482 114.10023976 -323.0625 114.34375 C-322.98773438 113.5909375 -322.91296875 112.838125 -322.8359375 112.0625 C-320.47077366 92.95568625 -312.28652276 78.18727653 -299.0625 64.34375 C-298.25232422 63.42142578 -298.25232422 63.42142578 -297.42578125 62.48046875 C-285.03073913 48.89899942 -263.40559554 39.21920976 -245.23852539 38.18261719 C-241.86709945 38.1366274 -238.49675137 38.10310963 -235.125 38.09375 C-233.30524658 38.08782837 -233.30524658 38.08782837 -231.44873047 38.08178711 C-223.82416987 38.13139022 -217.00719816 38.65052379 -209.6640625 40.78515625 C-205.6761904 41.64141107 -203.20190746 41.06705985 -199.7734375 38.890625 C-199.00257813 38.29765625 -198.23171875 37.7046875 -197.4375 37.09375 C-185.31776486 28.33163037 -172.33381984 24.80564141 -157.5 24.96875 C-155.91155273 24.95134766 -155.91155273 24.95134766 -154.29101562 24.93359375 C-147.40076525 24.95906602 -141.53160957 25.96690043 -135.0625 28.34375 C-134.80597656 27.62703125 -134.54945313 26.9103125 -134.28515625 26.171875 C-127.03474912 9.40096523 -110.34324797 -2.65054581 -94.1875 -10.03125 C-63.13410637 -22.17657729 -27.50963511 -19.43615524 0 0 Z " fill="#000000" transform="translate(418.0625,23.65625)"/>
<path d="M0 0 C2.21457991 -0.00967065 4.42821729 -0.04068829 6.64257812 -0.07226562 C8.06444765 -0.07879992 9.48632378 -0.08404871 10.90820312 -0.08789062 C12.19307617 -0.09723633 13.47794922 -0.10658203 14.80175781 -0.11621094 C20.26713394 0.41250952 24.17425474 1.7209915 27.86132812 5.99023438 C30.87991368 12.02740549 30.8478296 15.7505646 28.86914062 22.10351562 C28.13185488 24.25855693 27.3787743 26.4082485 26.61132812 28.55273438 C26.23363281 29.64908203 25.8559375 30.74542969 25.46679688 31.875 C22.74805473 39.71678116 22.74805473 39.71678116 21.48632812 42.24023438 C22.14117187 42.21928711 22.79601562 42.19833984 23.47070312 42.17675781 C26.47575141 42.09293055 29.48055276 42.04136543 32.48632812 41.99023438 C33.51628906 41.95671875 34.54625 41.92320312 35.60742188 41.88867188 C42.11708721 41.8057462 47.09417433 42.39638102 52.48632812 46.24023438 C57.40163391 51.40760712 58.03917448 56.06300869 57.93945312 63.00195312 C56.67896513 72.01009578 48.96530709 79.27750776 43.37939453 86.13671875 C39.29459526 91.1622369 35.42686097 96.32062769 31.61132812 101.55273438 C26.84237754 108.07905055 22.00495469 114.5421355 17.04882812 120.92773438 C16.49404785 121.64550049 15.93926758 122.3632666 15.36767578 123.1027832 C3.05184823 138.89386902 3.05184823 138.89386902 -2.00195312 139.57617188 C-8.0346331 139.65961143 -11.82675551 139.4584591 -16.51367188 135.24023438 C-20.4129928 130.80307608 -20.77710823 127.05342159 -20.51367188 121.24023438 C-20.00036299 118.63153994 -19.43939599 116.12002511 -18.76367188 113.55664062 C-18.58610352 112.85627182 -18.40853516 112.15590302 -18.22558594 111.43431091 C-17.66272525 109.22171011 -17.08841744 107.01227427 -16.51367188 104.80273438 C-16.12749139 103.29316394 -15.74206731 101.7833998 -15.35742188 100.2734375 C-14.41823238 96.59340645 -13.46877282 92.91616645 -12.51367188 89.24023438 C-13.51164795 89.27165527 -13.51164795 89.27165527 -14.52978516 89.30371094 C-17.56592489 89.38724047 -20.60182231 89.43901041 -23.63867188 89.49023438 C-24.68539063 89.52375 -25.73210937 89.55726563 -26.81054688 89.59179688 C-33.08067343 89.67116557 -36.74021456 89.43175455 -41.51367188 85.24023438 C-42.11179687 84.72460938 -42.70992188 84.20898438 -43.32617188 83.67773438 C-45.75260611 80.74047188 -45.85011343 77.38285783 -45.79504395 73.70089722 C-45.19345571 68.43987108 -43.23391716 63.50149861 -41.49804688 58.52539062 C-40.87968964 56.70991982 -40.87968964 56.70991982 -40.24884033 54.85777283 C-39.37853964 52.30434278 -38.50037557 49.75381477 -37.61572266 47.20532227 C-36.49061888 43.96378512 -35.37972772 40.71761601 -34.27407455 37.46939945 C-33.2081459 34.34042139 -32.13440307 31.21415752 -31.06054688 28.08789062 C-30.66559021 26.93450699 -30.27063354 25.78112335 -29.8637085 24.5927887 C-23.37790551 5.91375515 -23.37790551 5.91375515 -16.51367188 1.24023438 C-11.23016382 -0.52093498 -5.53297796 0.01462461 0 0 Z M-9.51367188 16.24023438 C-11.99423431 23.37567084 -14.47219445 30.51200063 -16.94554901 37.64993858 C-18.09406314 40.96413635 -19.24372514 44.27792665 -20.39599609 47.59082031 C-21.71987435 51.397263 -23.03878398 55.20541061 -24.35742188 59.01367188 C-24.77302368 60.20640717 -25.18862549 61.39914246 -25.61682129 62.62802124 C-25.99721558 63.72901154 -26.37760986 64.83000183 -26.76953125 65.96435547 C-27.10706421 66.93698334 -27.44459717 67.90961121 -27.7923584 68.91171265 C-28.61230556 71.15235979 -28.61230556 71.15235979 -28.51367188 73.24023438 C-27.17405396 73.26210815 -27.17405396 73.26210815 -25.80737305 73.28442383 C-22.4914991 73.34550515 -19.17645288 73.41965916 -15.86108398 73.50268555 C-14.4266256 73.53592438 -12.99203675 73.56395972 -11.55737305 73.58666992 C-9.49406381 73.62023709 -7.43194885 73.67254851 -5.36914062 73.72851562 C-4.12801514 73.75469971 -2.88688965 73.78088379 -1.6081543 73.80786133 C1.48632812 74.24023438 1.48632812 74.24023438 3.35229492 75.4597168 C5.63793399 79.04834236 5.59599612 81.62890256 4.84960938 85.78955078 C4.50957784 87.14291066 4.15872596 88.493584 3.79882812 89.84179688 C3.61747314 90.5600766 3.43611816 91.27835632 3.24926758 92.0184021 C2.67160533 94.30336687 2.08034701 96.58447143 1.48632812 98.86523438 C0.89315754 101.15331539 0.30322298 103.44199103 -0.27661133 105.73348999 C-0.63693211 107.15678509 -1.00499791 108.57814677 -1.3815918 109.9972229 C-2.21706515 113.29027057 -2.61208562 114.94499315 -1.51367188 118.24023438 C5.37037115 109.43030712 12.24742691 100.620305 18.92773438 91.65429688 C22.51941126 86.84625487 26.16262933 82.07712601 29.79882812 77.30273438 C30.84079346 75.93314575 30.84079346 75.93314575 31.90380859 74.53588867 C32.56654785 73.66617432 33.22928711 72.79645996 33.91210938 71.90039062 C34.84724365 70.66893311 34.84724365 70.66893311 35.80126953 69.41259766 C37.13889572 67.6881413 38.54224676 66.01470362 39.96679688 64.36132812 C41.87457517 62.13315493 41.87457517 62.13315493 41.48632812 58.24023438 C40.47731445 58.22565186 39.46830078 58.21106934 38.42871094 58.19604492 C34.67867922 58.13799323 30.92924367 58.06076146 27.1796875 57.9777832 C25.55804127 57.94456603 23.93628032 57.91652403 22.31445312 57.89379883 C19.98062335 57.86019282 17.64784177 57.80787677 15.31445312 57.75195312 C14.59138977 57.7455632 13.86832642 57.73917328 13.12335205 57.73258972 C10.17098377 57.64670002 7.73394155 57.34288855 4.99707031 56.20825195 C2.61334911 53.1030198 3.00900061 49.9414302 3.48632812 46.24023438 C4.40429688 42.578125 4.40429688 42.578125 5.67382812 38.89648438 C5.89578857 38.24192261 6.11774902 37.58736084 6.34643555 36.91296387 C7.04841976 34.85130163 7.76699081 32.79589767 8.48632812 30.74023438 C8.96921438 29.33176213 9.45099544 27.92291047 9.93164062 26.51367188 C11.10183414 23.08379432 12.29435234 19.6629077 13.48632812 16.24023438 C5.89632812 16.24023438 -1.69367188 16.24023438 -9.51367188 16.24023438 Z " fill="#000000" transform="translate(454.513671875,226.759765625)"/>
<path d="M0 0 C2.7206919 1.63241514 2.96037087 2.85361236 3.79370117 5.93188477 C4.47455074 11.31450886 2.28738341 16.00076092 0.42578125 20.96484375 C-0.16005989 22.58437202 -0.16005989 22.58437202 -0.75773621 24.23661804 C-2.05348478 27.80891597 -3.37066265 31.37292799 -4.6875 34.9375 C-5.60663976 37.46149216 -6.52440149 39.9859354 -7.43994141 42.51123047 C-9.10321982 47.09480182 -10.77135432 51.67654435 -12.44608688 56.2559433 C-16.5779621 67.5557604 -20.62437242 78.88570309 -24.6612854 90.21975708 C-25.87828536 93.63421753 -27.09825319 97.0476037 -28.3190918 100.46069336 C-32.65316265 112.58203587 -36.96266102 124.71164608 -41.24225235 136.85230637 C-42.00339575 139.01091157 -42.76521776 141.16927592 -43.52731323 143.32754517 C-43.77671976 144.03388029 -44.02612629 144.74021542 -44.28309059 145.46795464 C-44.78364609 146.88548372 -45.28423467 148.30300111 -45.7848568 149.72050667 C-47.24331894 153.85155877 -48.69700367 157.98425259 -50.1471386 162.11823463 C-50.83044558 164.0636101 -51.51612958 166.00812825 -52.20285034 167.95230103 C-53.04035172 170.32356978 -53.87406314 172.6961821 -54.70315552 175.07040405 C-59.99031864 189.99031864 -59.99031864 189.99031864 -64 194 C-70.9273743 194.67039106 -70.9273743 194.67039106 -74.5 192.4375 C-76.49950247 189.18830849 -76.50362833 186.67853227 -76 183 C-74.8451134 178.78991385 -73.35328113 174.71588059 -71.85546875 170.6171875 C-71.41910599 169.39585114 -70.98274323 168.17451477 -70.53315735 166.91616821 C-69.34518896 163.59170033 -68.14374583 160.272249 -66.93984985 156.95352173 C-65.67045729 153.44656282 -64.41399202 149.93497838 -63.15625 146.42382812 C-61.09826298 140.68347057 -59.03331534 134.94566756 -56.96240234 129.20996094 C-53.93561127 120.82665476 -50.92590405 112.43727957 -47.92059326 104.04624939 C-46.02409968 98.7513974 -44.1256226 93.45728612 -42.22119141 88.1652832 C-38.04740446 76.55942889 -33.91478869 64.94007323 -29.8298378 53.30270767 C-29.07045923 51.14044674 -28.30997452 48.97857845 -27.54904175 46.81686401 C-27.17475446 45.75354512 -27.17475446 45.75354512 -26.79290581 44.66874504 C-26.29116589 43.24348002 -25.78937189 41.81823403 -25.28752327 40.39300728 C-23.82023629 36.22373502 -22.36054405 32.05190108 -20.90637302 27.87803745 C-20.22078993 25.91440728 -19.5313979 23.95216457 -18.84031677 21.99046326 C-17.99447944 19.5891594 -17.15478216 17.18568039 -16.32240295 14.77967834 C-10.31912409 -2.17244718 -10.31912409 -2.17244718 0 0 Z " fill="#000000" transform="translate(378,311)"/>
<path d="M0 0 C0.7734375 -0.00773437 1.546875 -0.01546875 2.34375 -0.0234375 C5.06338743 0.4791042 5.89601656 1.13529142 7.5 3.375 C8.52990334 7.03491732 8.51648548 9.32411415 7.296875 12.90625 C6.98516357 13.83638916 6.67345215 14.76652832 6.35229492 15.72485352 C5.9885376 16.76440186 5.62478027 17.8039502 5.25 18.875 C4.86884033 19.99124756 4.48768066 21.10749512 4.0949707 22.25756836 C2.59067174 26.63973229 1.04672236 31.00765939 -0.5 35.375 C-0.8541095 36.37509094 -1.20821899 37.37518188 -1.57305908 38.40557861 C-6.10775078 51.19933244 -10.67446665 63.98171305 -15.26953125 76.75390625 C-15.63599258 77.77605728 -16.00245392 78.79820831 -16.38002014 79.85133362 C-17.40661662 82.69771939 -18.44769147 85.53802649 -19.5 88.375 C-19.8454184 89.3118161 -20.19083679 90.2486322 -20.54672241 91.21383667 C-20.88668243 92.10483063 -21.22664246 92.99582458 -21.5769043 93.91381836 C-21.87517624 94.70227646 -22.17344818 95.49073456 -22.48075867 96.30308533 C-23.58251316 98.54273282 -24.52090495 99.85526377 -26.5 101.375 C-33.29245283 102.12971698 -33.29245283 102.12971698 -37 99.8125 C-39.04294899 96.49270789 -38.71871383 94.23872819 -38.5 90.375 C-37.72535706 87.34768677 -37.72535706 87.34768677 -36.62329102 84.28564453 C-36.2118837 83.12557892 -35.80047638 81.96551331 -35.37660217 80.77029419 C-34.91925954 79.51605241 -34.4616877 78.26189418 -34.00390625 77.0078125 C-33.53126201 75.68799579 -33.05959709 74.36782802 -32.58885193 73.04733276 C-31.34441377 69.56488945 -30.08676437 66.08736262 -28.82623291 62.61071777 C-27.57999251 59.16650093 -26.34610619 55.71787028 -25.11132812 52.26953125 C-23.41897431 47.54629077 -21.71968969 42.82565923 -20.01129723 38.10819626 C-17.93721458 32.38089441 -15.88686003 26.64678248 -13.87451172 20.89746094 C-13.4662767 19.73890594 -13.05804169 18.58035095 -12.63743591 17.38668823 C-11.87651932 15.22449175 -11.12210496 13.05999184 -10.37538147 10.89285278 C-9.87040382 9.46451614 -9.87040382 9.46451614 -9.35522461 8.00732422 C-9.06747665 7.18013885 -8.7797287 6.35295349 -8.48326111 5.5007019 C-6.54103953 1.3018334 -4.59350643 -0.04593506 0 0 Z " fill="#000000" transform="translate(75.5,403.625)"/>
<path d="M0 0 C2.4375 1.5 2.4375 1.5 4 4 C4.73329304 11.30780689 2.566257 17.1450753 0.08984375 23.9609375 C-0.31527939 25.10551422 -0.72040253 26.25009094 -1.13780212 27.42935181 C-2.43434795 31.08218527 -3.74843436 34.72843769 -5.0625 38.375 C-5.91971061 40.78737308 -6.77584069 43.20013041 -7.63085938 45.61328125 C-9.67887145 51.37822019 -11.76293086 57.12916128 -13.86553955 62.87438965 C-14.92271875 65.78707845 -15.95053539 68.70848801 -16.97216797 71.63378906 C-17.56234471 73.26928908 -18.15356851 74.90441185 -18.74609375 76.5390625 C-18.99142349 77.2662851 -19.23675323 77.99350769 -19.48951721 78.74276733 C-20.81092235 82.29770036 -21.81078216 83.87393679 -25.00415039 86.00146484 C-28 87 -28 87 -31.1875 86.4375 C-34.28072902 84.85651628 -35.58103098 84.17181311 -37 81 C-36.6225173 73.96070256 -34.40087835 67.83973588 -31.9921875 61.2578125 C-31.38662521 59.57424149 -31.38662521 59.57424149 -30.76882935 57.85665894 C-29.91355006 55.48344765 -29.05432291 53.11165589 -28.19140625 50.74121094 C-26.89287997 47.17411685 -25.60545795 43.60318387 -24.3203125 40.03125 C-21.90849407 33.34364385 -19.46235216 26.66914497 -17 20 C-16.64812622 19.04121948 -16.29625244 18.08243896 -15.93371582 17.09460449 C-14.99049217 14.53524276 -14.03356329 11.98156739 -13.0703125 9.4296875 C-12.7995993 8.69219269 -12.52888611 7.95469788 -12.24996948 7.19485474 C-9.72256401 0.60376206 -6.99635326 -0.73645824 0 0 Z " fill="#000000" transform="translate(419,373)"/>
<path d="M0 0 C2.5625 2 2.5625 2 4 5 C3.64296252 11.52278276 1.77493341 17.16223144 -0.45703125 23.265625 C-0.80126633 24.2214447 -1.1455014 25.1772644 -1.50016785 26.16204834 C-2.22642449 28.17044202 -2.95699494 30.17728049 -3.69165039 32.18261719 C-4.81231057 35.24948159 -5.91171863 38.32341516 -7.00976562 41.3984375 C-7.72008252 43.35462888 -8.43162902 45.31037432 -9.14453125 47.265625 C-9.47072952 48.18232971 -9.7969278 49.09903442 -10.13301086 50.04351807 C-13.10494106 58.06232094 -13.10494106 58.06232094 -17 61 C-20.42708053 61.83539199 -23.83432242 61.67684505 -26.9375 59.875 C-28.79322018 56.60019968 -29.34515904 53.57538959 -28.53042603 49.85675049 C-27.74035198 47.30578815 -26.86736064 44.7996467 -25.95703125 42.2890625 C-25.63216232 41.36209564 -25.3072934 40.43512878 -24.97257996 39.48007202 C-24.28368487 37.52283564 -23.58816117 35.56792141 -22.88647461 33.61523438 C-21.82037577 30.64692827 -20.77467873 27.67206312 -19.73242188 24.6953125 C-19.05848355 22.78864079 -18.38339027 20.88237685 -17.70703125 18.9765625 C-17.39643265 18.0961026 -17.08583405 17.2156427 -16.76582336 16.3085022 C-10.25754698 -1.73993893 -10.25754698 -1.73993893 0 0 Z " fill="#000000" transform="translate(198,444)"/>
</svg>
