<?xml version="1.0" encoding="UTF-8"?>
<svg version="1.1" xmlns="http://www.w3.org/2000/svg" width="512" height="512">
<path d="M0 0 C2.05333751 1.69477732 4.08769583 3.41089423 6.125 5.125 C7.115 5.785 8.105 6.445 9.125 7.125 C10.05957031 6.61710937 10.99414062 6.10921875 11.95703125 5.5859375 C47.72707564 -13.35195975 90.19673086 -16.65765329 128.8046875 -4.9609375 C171.28374394 8.93221273 203.09208101 37.34589457 223.51171875 76.8046875 C234.62954567 99.88206957 238.46782031 124.71820598 238.125 150.125 C239.28 150.29 240.435 150.455 241.625 150.625 C258.94599752 154.53178651 274.67148153 166.71906531 284.25390625 181.3828125 C295.56180525 199.93148537 298.80904811 220.29185079 294.1015625 241.51953125 C290.30686371 255.52955917 283.23131305 266.83247348 273.125 277.125 C272.44824219 277.82625 271.77148438 278.5275 271.07421875 279.25 C257.89435709 291.95826586 239.35952621 298.30824966 221.21990967 298.15536499 C219.43131697 298.11862764 217.64283586 298.07614125 215.85449219 298.02880859 C213.81461422 297.98610802 211.77471631 297.94435214 209.73480225 297.90341187 C208.66586479 297.88089733 207.59692734 297.8583828 206.49559784 297.835186 C199.5880213 297.70685625 192.67928329 297.66545002 185.77077866 297.61385155 C179.71768446 297.56386805 173.66893645 297.47931754 167.61767578 297.31933594 C161.73813403 297.16564886 155.86417609 297.10607705 149.98270416 297.1090889 C147.75450656 297.09379662 145.5262603 297.04521531 143.29958344 296.96149826 C131.38297399 296.23997964 131.38297399 296.23997964 120.92882729 300.99020386 C116.96455082 305.52755169 114.04270542 310.53945578 111.30542946 315.88519669 C109.73830311 318.85873717 107.89400873 321.48697544 105.91796875 324.203125 C105.32048828 325.06099609 104.72300781 325.91886719 104.10742188 326.80273438 C103.51509766 327.65158203 102.92277344 328.50042969 102.3125 329.375 C100.95180214 331.32811053 99.59112569 333.28123597 98.23046875 335.234375 C97.55161621 336.20826172 96.87276367 337.18214844 96.17333984 338.18554688 C92.82081651 342.99655772 89.47311999 347.81092423 86.125 352.625 C84.79169052 354.54168326 83.45835717 356.45834991 82.125 358.375 C81.465 359.32375 80.805 360.2725 80.125 361.25 C78.125 364.125 76.125 367 74.125 369.875 C73.4642749 370.8249585 72.8035498 371.77491699 72.12280273 372.75366211 C70.79742376 374.65856033 69.4714207 376.5630245 68.14477539 378.46704102 C64.68433656 383.43527592 61.2370266 388.41195791 57.80859375 393.40234375 C57.09767578 394.43359375 56.38675781 395.46484375 55.65429688 396.52734375 C54.30387186 398.48678397 52.95723641 400.44884387 51.61523438 402.4140625 C41.1369814 417.58946336 41.1369814 417.58946336 36.74755859 418.7578125 C32.6830142 419.08276413 30.52608806 418.37874959 27.0625 416.1875 C24.18000745 411.6313021 24.6084007 407.20946363 25.48573875 401.97113419 C25.98712307 399.76841958 26.55636179 397.59618302 27.15698242 395.41845703 C27.48143341 394.18942406 27.48143341 394.18942406 27.81243896 392.93556213 C28.52460444 390.24838646 29.25241297 387.56572218 29.98046875 384.8828125 C30.485139 382.99089297 30.98880871 381.09870629 31.49153137 379.20626831 C32.81635928 374.2297117 34.15445335 369.25681834 35.4954834 364.28460693 C36.8413885 359.28557395 38.17519146 354.28331752 39.50976562 349.28125 C41.02006759 343.62360297 42.53156997 337.9662974 44.05180359 332.31130981 C44.28684097 331.43686722 44.52187836 330.56242462 44.76403809 329.66148376 C45.18999833 328.07757992 45.61634937 326.49378107 46.04328918 324.91014099 C48.44186088 315.99152603 50.77449704 307.05691126 53.125 298.125 C34.315 298.125 15.505 298.125 -3.875 298.125 C-4.535 300.105 -5.195 302.085 -5.875 304.125 C-11.82543388 314.26347811 -21.42469723 321.82349477 -32.7578125 324.91015625 C-45.12324975 327.34772939 -56.93457303 325.91261038 -67.796875 319.36328125 C-74.29765523 314.89179863 -80.64090663 309.86836361 -82.69921875 301.95703125 C-84.5705934 298.9030192 -84.5705934 298.9030192 -87.51220703 298.50585938 C-91.07549792 298.18206813 -94.61084677 298.03391812 -98.1875 297.9375 C-100.75164138 297.810037 -103.31546529 297.67600465 -105.87890625 297.53515625 C-107.10109863 297.47086426 -108.32329102 297.40657227 -109.58251953 297.34033203 C-135.93860696 295.61661343 -159.91735796 280.91852829 -177.41113281 261.82714844 C-195.41548295 240.8921369 -203.89027144 212.47972605 -201.875 185.125 C-199.61128828 163.58498869 -191.6003413 143.92174635 -177.875 127.125 C-177.26140625 126.34640625 -176.6478125 125.5678125 -176.015625 124.765625 C-164.77321703 111.21708206 -148.96657047 101.78358088 -132.875 95.125 C-133.16375 94.35542969 -133.4525 93.58585937 -133.75 92.79296875 C-140.47385802 71.99103299 -138.68755888 48.53572217 -129.25 28.9375 C-119.01959304 9.0577674 -102.47202725 -6.331801 -81.23046875 -13.84375 C-53.1912191 -22.46116782 -23.17025855 -18.5100292 0 0 Z M-102.875 24.125 C-114.18956566 39.53961733 -119.61137413 55.84753523 -117.875 75.125 C-116.97204078 80.24510084 -115.48554922 85.18550308 -113.875 90.125 C-109.73545533 91.25710929 -105.86919925 91.12528023 -101.62646484 91.01000977 C-91.791498 90.75658402 -82.79995285 91.50621597 -73.22241211 93.7902832 C-72.05657593 94.06618286 -72.05657593 94.06618286 -70.8671875 94.34765625 C-70.19026855 94.52047119 -69.51334961 94.69328613 -68.81591797 94.87133789 C-66.47771136 95.17692238 -65.05403044 95.04130294 -62.875 94.125 C-61.70549052 92.46027016 -61.70549052 92.46027016 -60.98046875 90.328125 C-60.51265991 89.14694092 -60.51265991 89.14694092 -60.03540039 87.94189453 C-59.71434326 87.09481934 -59.39328613 86.24774414 -59.0625 85.375 C-58.36145072 83.62572136 -57.65569429 81.87832204 -56.9453125 80.1328125 C-56.59629883 79.27461914 -56.24728516 78.41642578 -55.88769531 77.53222656 C-46.06734124 54.18876197 -28.44258193 34.72952736 -8.875 19.125 C-13.44151747 14.33987265 -18.10787401 11.27386819 -23.875 8.125 C-24.57496094 7.74085937 -25.27492188 7.35671875 -25.99609375 6.9609375 C-51.13338553 -5.48891211 -85.41096409 2.11219195 -102.875 24.125 Z M-8.875 44.125 C-9.63224365 44.80852539 -9.63224365 44.80852539 -10.40478516 45.50585938 C-26.66284061 60.30773587 -39.95386251 80.80243384 -45.875 102.125 C-44.61259681 105.91220957 -43.46645623 106.17709944 -40.0625 108.125 C-27.19284524 116.09351681 -16.06095817 127.73807481 -8.875 141.125 C-8.24348801 145.54558395 -8.3506169 147.37815134 -10.9375 151.0625 C-13.875 153.125 -13.875 153.125 -17.3125 153.75 C-25.22027803 152.36267052 -28.51292887 146.00081687 -32.87109375 139.83984375 C-44.09616221 124.63239233 -63.58094085 113.74438776 -82.03125 110.50390625 C-106.43895373 107.25178089 -129.38618651 111.75349955 -149.25 126.59375 C-166.62581887 140.20272956 -179.07274864 159.99507103 -181.875 182.125 C-183.49684663 209.27403682 -177.56797271 231.23650806 -159.41796875 251.92578125 C-145.77037071 266.37265297 -126.36855668 277.36468954 -106.21240234 278.24072266 C-100.09728566 278.367884 -93.98854596 278.29564722 -87.875 278.125 C-87.6881665 277.55507324 -87.50133301 276.98514648 -87.30883789 276.39794922 C-79.19089504 251.81100839 -66.8342918 225.90976896 -49.875 206.125 C-46.34874118 204.36187059 -42.40618331 204.95946667 -38.5625 205.375 C-36.20342344 206.42347847 -35.97725982 207.81685125 -34.875 210.125 C-33.98400556 211.6090259 -33.07495419 213.08229522 -32.15234375 214.546875 C-31.61818848 215.39942871 -31.0840332 216.25198242 -30.53369141 217.13037109 C-29.96569824 218.03609863 -29.39770508 218.94182617 -28.8125 219.875 C-17.16955691 238.59181075 -6.9432802 256.84407267 -0.875 278.125 C3.745 278.125 8.365 278.125 13.125 278.125 C16.41314565 270.20782487 19.1465429 262.18125342 21.7578125 254.01953125 C22.19865555 252.65067258 22.63981501 251.28191577 23.08126831 249.91325378 C24.24113765 246.31441721 25.39682957 242.71425303 26.55157471 239.11376953 C27.46525434 236.26677479 28.38139826 233.42057682 29.29787064 230.57448006 C29.97778524 228.46299963 30.65720984 226.35136194 31.33660889 224.23971558 C32.2406177 221.43053197 33.14645859 218.62194802 34.05352783 215.81375122 C36.13545306 209.3611209 38.20160909 202.90494727 40.20508766 196.42746067 C41.09987635 193.5384339 42.0046556 190.65258257 42.91039658 187.7669735 C43.33603218 186.40096009 43.75669692 185.03338673 44.17209244 183.66422462 C44.74531611 181.77581612 45.33683889 179.89299142 45.92919922 178.01049805 C46.25798065 176.942686 46.58676208 175.87487396 46.92550659 174.77470398 C48.26470425 171.81639062 49.34705078 170.74366825 52.125 169.125 C56.08876524 167.80374492 59.88270801 167.97755953 64.01513672 167.97973633 C65.37900009 167.97469841 65.37900009 167.97469841 66.77041626 167.96955872 C69.78185383 167.96004511 72.79323583 167.95810537 75.8046875 167.95703125 C77.89592512 167.95381888 79.98716251 167.95045482 82.07839966 167.94694519 C86.4648694 167.94095284 90.85131943 167.93910539 95.23779297 167.93969727 C100.85909585 167.93979888 106.48027239 167.92614822 112.10154533 167.90892506 C116.4218097 167.89780736 120.7420435 167.89577799 125.06232071 167.89630699 C127.13476115 167.89512647 129.20720238 167.89070066 131.27962875 167.88297462 C134.17853394 167.8731798 137.07716463 167.87605088 139.97607422 167.88208008 C140.83235413 167.87646057 141.68863403 167.87084106 142.57086182 167.86505127 C147.77877032 167.89258168 151.84622067 168.22601723 156 171.6875 C157.77159299 175.52595149 156.98856923 179.06365547 156.125 183.125 C155.04204012 185.88447833 153.59677191 188.34360326 152.0625 190.875 C151.15084702 192.44704964 150.2408087 194.02003631 149.33203125 195.59375 C148.57140381 196.89699219 148.57140381 196.89699219 147.79541016 198.2265625 C144.88485458 203.27685713 142.08858404 208.39060411 139.28128052 213.49874878 C137.90873215 215.99588269 136.53331514 218.49143183 135.15800476 220.98704529 C134.13905586 222.83632524 133.12077482 224.68597183 132.10253906 226.53564453 C130.21565743 229.96221327 128.32247426 233.38528342 126.4296875 236.80859375 C125.32782707 238.80973182 124.22624714 240.81102437 123.125 242.8125 C122.61469238 243.73256836 122.10438477 244.65263672 121.57861328 245.60058594 C121.1195459 246.43750977 120.66047852 247.27443359 120.1875 248.13671875 C119.78660156 248.86334717 119.38570313 249.58997559 118.97265625 250.33862305 C117.98210112 252.09660167 117.98210112 252.09660167 118.125 254.125 C118.73496826 254.12910889 119.34493652 254.13321777 119.97338867 254.13745117 C122.75405792 254.17047575 125.53256157 254.24112568 128.3125 254.3125 C129.75206055 254.32120117 129.75206055 254.32120117 131.22070312 254.33007812 C135.94353363 254.47715589 138.39098605 254.57494715 142.2578125 257.47265625 C144.125 260.125 144.125 260.125 144.8125 263.375 C143.98202654 267.90485526 142.15321251 270.55464938 139.4375 274.20703125 C137.93675194 276.01274515 137.93675194 276.01274515 138.125 278.125 C149.89572262 278.2180421 161.66635647 278.28893782 173.43737316 278.33224869 C178.90426391 278.35304501 184.37090143 278.38121613 189.83764648 278.42675781 C195.12207307 278.47050074 200.40625742 278.4941968 205.69085121 278.50450897 C207.698101 278.51184958 209.70533886 278.52618284 211.71248436 278.54792023 C230.69635266 278.74517408 245.48410293 275.92947074 259.76953125 262.5078125 C271.62369557 250.51603765 276.55190245 237.00339393 276.49072266 220.34960938 C276.3433037 213.36546728 275.09101555 207.48995883 272.125 201.125 C271.68929688 200.18269531 271.25359375 199.24039063 270.8046875 198.26953125 C263.38930161 183.5805838 251.65691161 174.27676846 236.125 169.125 C232.73866497 168.32267591 229.36381584 167.60493664 225.9375 166.99609375 C222.51873357 165.93722581 221.31202524 164.95308461 219.125 162.125 C218.62670898 158.80371094 218.62670898 158.80371094 218.62109375 154.859375 C218.61167252 154.14831604 218.60225128 153.43725708 218.59254456 152.70465088 C218.56393876 150.42781 218.56080868 148.15200539 218.5625 145.875 C218.54348299 134.26194517 217.69293423 123.46877937 215.125 112.125 C214.93703857 111.28727051 214.74907715 110.44954102 214.55541992 109.58642578 C209.49321505 88.611966 198.82704623 70.57892162 185.125 54.125 C184.35542969 53.16980469 184.35542969 53.16980469 183.5703125 52.1953125 C179.83225363 47.64902469 175.67145794 43.85234403 171.125 40.125 C170.21105469 39.361875 169.29710937 38.59875 168.35546875 37.8125 C116.08906385 -4.26359954 40.18597802 -1.04671233 -8.875 44.125 Z M63.125 187.125 C56.30127515 207.42342203 49.58992466 227.75124219 43.03610229 248.13833618 C42.2608086 250.54992404 41.48453994 252.96119867 40.70730591 255.37216187 C39.60901144 258.78095982 38.51477314 262.19103115 37.421875 265.6015625 C37.0880632 266.63643295 36.7542514 267.67130341 36.4103241 268.73753357 C36.10830582 269.68346878 35.80628754 270.62940399 35.49511719 271.60400391 C35.09640411 272.84677597 35.09640411 272.84677597 34.68963623 274.11465454 C34.03486589 276.0978935 34.03486589 276.0978935 34.125 278.125 C35.09848389 278.14481934 36.07196777 278.16463867 37.07495117 278.18505859 C40.70004351 278.26135367 44.32474694 278.35003336 47.94946289 278.44238281 C49.51579081 278.48057409 51.08220349 278.51544394 52.64868164 278.546875 C54.905418 278.59274071 57.16157583 278.65069769 59.41796875 278.7109375 C60.11399704 278.72248871 60.81002533 278.73403992 61.52714539 278.74594116 C66.40473415 278.89271555 70.29195353 279.41837053 73.9375 282.8125 C76.4760137 287.75592141 75.05663391 293.24594997 73.64038086 298.37988281 C73.31682114 299.57091614 72.99326141 300.76194946 72.65989685 301.98907471 C72.30677933 303.2559613 71.9536618 304.5228479 71.58984375 305.828125 C71.22771373 307.1558731 70.86661054 308.48390165 70.50648499 309.81219482 C69.36829597 314.00251017 68.2162825 318.18895572 67.0625 322.375 C65.72155661 327.24173683 64.38634568 332.10991054 63.06503487 336.98201752 C62.53395649 338.92888354 61.99278421 340.87275828 61.45115662 342.81671143 C61.13074905 343.99513611 60.81034149 345.17356079 60.48022461 346.38769531 C60.19376572 347.4258136 59.90730682 348.46393188 59.61216736 349.5335083 C58.88865159 352.22604527 58.88865159 352.22604527 60.125 355.125 C65.38951113 347.94077555 70.55460484 340.69732864 75.625 333.375 C77.02468974 331.35803833 78.42443084 329.34111229 79.82421875 327.32421875 C80.53368652 326.30118652 81.2431543 325.2781543 81.97412109 324.22412109 C84.09049923 321.17471087 86.21050208 318.12785961 88.33203125 315.08203125 C94.77886199 305.8263711 101.22229238 296.56902709 107.58911133 287.25805664 C107.98638428 286.67789795 108.38365723 286.09773926 108.79296875 285.5 C109.17114746 284.94699219 109.54932617 284.39398438 109.93896484 283.82421875 C111.23753233 281.96377624 112.58238318 280.14076535 113.92578125 278.3125 C116.31429932 275.49606031 116.31429932 275.49606031 116.125 273.125 C115.57038086 273.11041748 115.01576172 273.09583496 114.44433594 273.08081055 C111.92053758 273.00613103 109.39803346 272.90953975 106.875 272.8125 C106.00230469 272.78994141 105.12960937 272.76738281 104.23046875 272.74414062 C97.78651085 272.47359277 97.78651085 272.47359277 94.58984375 270.7890625 C92.65107185 268.58661762 91.9868287 266.55376366 91.79296875 263.640625 C92.58594144 257.63269072 96.17879947 252.32505541 99.125 247.125 C99.57713867 246.32175293 100.02927734 245.51850586 100.49511719 244.69091797 C102.58183595 240.98806959 104.67476758 237.28891867 106.78149414 233.59741211 C112.05760582 224.33059771 117.0950211 214.9439409 122.09960938 205.52880859 C122.69708984 204.40555176 123.29457031 203.28229492 123.91015625 202.125 C124.46719238 201.07699219 125.02422852 200.02898437 125.59814453 198.94921875 C126.87703728 196.58365569 128.19599229 194.25529643 129.55859375 191.9375 C131.28718996 189.37033332 131.28718996 189.37033332 131.125 187.125 C108.685 187.125 86.245 187.125 63.125 187.125 Z M-44.875 232.125 C-62.7217101 258.07604547 -62.7217101 258.07604547 -68.375 287.5 C-66.6972288 293.96824948 -62.94774542 298.88315002 -57.578125 302.80078125 C-50.69640876 306.69092339 -44.07747531 307.46088281 -36.42578125 305.49609375 C-29.04353262 302.70111677 -24.73441326 297.42395902 -20.9375 290.6875 C-16.72649244 276.56823937 -25.62566105 263.11760925 -32.11279297 250.93261719 C-37.08503718 240.14500447 -37.08503718 240.14500447 -44.875 232.125 Z " fill="#000000" transform="translate(208.875,81.875)"/>
<path d="M0 0 C3.93709494 3.35865919 6.81105983 7.32088494 9.625 11.625 C10.04958496 12.26961182 10.47416992 12.91422363 10.91162109 13.57836914 C43.53275961 63.74779978 43.53275961 63.74779978 38.84765625 87.91796875 C35.39333456 100.4776914 27.95452438 110.15875242 16.78515625 116.7109375 C9.70492232 119.98790412 3.3728596 121.53690891 -4.4375 121.4375 C-5.26934814 121.43065186 -6.10119629 121.42380371 -6.95825195 121.41674805 C-13.32511244 121.25039598 -18.43348543 120.22160711 -24 117 C-24.68964844 116.63777344 -25.37929688 116.27554688 -26.08984375 115.90234375 C-36.68499814 109.90316804 -42.91578446 101.04505518 -46.8125 89.6171875 C-47.38388831 87.40305778 -47.73887251 85.27101784 -48 83 C-48.10570312 82.21882813 -48.21140625 81.43765625 -48.3203125 80.6328125 C-50.16763329 54.20809337 -26.65269071 22.21678176 -11.46948242 2.66870117 C-8.50316647 -0.69976029 -4.20818796 -1.01603097 0 0 Z M-5 28 C-6.44003857 30.07626251 -7.73142834 32.13307473 -9 34.3125 C-9.58624146 35.30672974 -9.58624146 35.30672974 -10.18432617 36.32104492 C-25.04338655 59.0875875 -25.04338655 59.0875875 -27.84375 84.62890625 C-25.18899977 92.08924602 -21.09699014 96.62014998 -14.05078125 100.125 C-8.19275256 102.62442557 -2.44127561 103.12357901 3.66796875 101.12890625 C10.89992072 97.79192387 14.99606844 93.54027909 18.875 86.6875 C22.80437732 73.80787433 16.50123941 62.51264085 10.51953125 51.25390625 C8.45273811 47.45706674 6.31878977 43.70223456 4.14404297 39.96630859 C3.11611759 38.19957555 2.10574438 36.42265795 1.09765625 34.64453125 C-0.82383504 31.23862137 -0.82383504 31.23862137 -3 28 C-3.66 28 -4.32 28 -5 28 Z " fill="#000000" transform="translate(389,391)"/>
<path d="M0 0 C3.51580213 1.40632085 4.67894775 2.38581309 6.4375 5.75 C7.24884449 10.43776816 6.26276785 14.00014141 3.7590332 17.96533203 C2.20151823 20.08359346 0.58725264 22.14028992 -1.0625 24.1875 C-2.24165379 25.68298823 -3.42003513 27.17908583 -4.59765625 28.67578125 C-5.17660645 29.40619629 -5.75555664 30.13661133 -6.35205078 30.88916016 C-7.83605392 32.79000329 -9.27195093 34.71309504 -10.68359375 36.66796875 C-11.44800781 37.72628906 -12.21242187 38.78460938 -13 39.875 C-13.66 40.80054688 -14.32 41.72609375 -15 42.6796875 C-17.6041892 45.70095387 -20.05346044 47.83600582 -24.1328125 48.1796875 C-28.10516731 47.57215088 -30.50248473 47.18800478 -33 44 C-34.58527023 40.07768192 -34.6316816 36.49993894 -32.98828125 32.59765625 C-31.15322488 29.5977782 -29.13242458 26.79099017 -27 24 C-26.45698242 23.28473145 -25.91396484 22.56946289 -25.35449219 21.83251953 C-21.78950456 17.15818823 -18.1797052 12.52105331 -14.52197266 7.91894531 C-13.23540352 6.29680328 -11.96541157 4.66153415 -10.69921875 3.0234375 C-7.56637893 -0.70716256 -4.69776992 -0.31849288 0 0 Z " fill="#000000" transform="translate(243,26)"/>
<path d="M0 0 C2.85030343 3.65195127 3.40960068 6.97497233 3 11.5625 C1.19510798 14.95569699 -0.07080646 16.19430136 -3.63452148 17.60644531 C-7.48599305 18.7005594 -11.32959031 19.35950972 -15.28515625 19.921875 C-16.06386581 20.03476868 -16.84257538 20.14766235 -17.6448822 20.26397705 C-19.2824317 20.49886695 -20.92042993 20.73064743 -22.55883789 20.95947266 C-25.06028971 21.31218834 -27.55822953 21.68502251 -30.05664062 22.05859375 C-31.65347032 22.28509498 -33.25047074 22.51039656 -34.84765625 22.734375 C-35.59048355 22.84779236 -36.33331085 22.96120972 -37.09864807 23.07806396 C-42.2549753 23.76801881 -45.41527955 23.224106 -49.75 20.4375 C-51.77589548 17.39865678 -51.99270795 14.16477228 -52 10.5625 C-51.20263521 7.61225026 -50.35791163 6.81842739 -47.87597656 5.04370117 C-44.42616671 3.26696124 -41.44624243 2.74807511 -37.609375 2.17578125 C-36.55330048 2.01567818 -36.55330048 2.01567818 -35.47589111 1.8523407 C-33.99072671 1.62963177 -32.50475235 1.41226579 -31.01806641 1.19995117 C-28.76896387 0.877717 -26.52326825 0.53697252 -24.27734375 0.19335938 C-5.47147064 -2.62174635 -5.47147064 -2.62174635 0 0 Z " fill="#000000" transform="translate(59,155.4375)"/>
<path d="M0 0 C2.40479133 1.33370022 4.30769591 2.57366644 6.4375 4.25 C7.02515137 4.69166504 7.61280273 5.13333008 8.21826172 5.58837891 C9.4835065 6.54137307 10.74345027 7.50143801 11.99853516 8.46777344 C14.0895144 10.06852798 16.20313584 11.63470337 18.32421875 13.1953125 C19.75825928 14.25460376 21.19186213 15.31448784 22.625 16.375 C23.29974365 16.87418945 23.9744873 17.37337891 24.66967773 17.88769531 C33.64005849 24.61236341 33.64005849 24.61236341 34.56640625 28.18359375 C34.55898639 32.46485465 34.40988324 34.43787441 31.8125 38 C27.4799437 41.08092892 27.4799437 41.08092892 24 41 C16.99541532 37.99357291 11.34908487 33.68422563 5.375 29 C3.55074389 27.58170511 1.72525626 26.16499257 -0.1015625 24.75 C-0.95008789 24.09128906 -1.79861328 23.43257812 -2.67285156 22.75390625 C-4.58572416 21.31222804 -6.50588478 19.97462278 -8.5234375 18.6875 C-11 17 -11 17 -13 14 C-13.48219153 10.95546509 -13.46284898 8.04708913 -13 5 C-9.31551073 0.08734764 -6.00023921 -0.52122037 0 0 Z " fill="#000000" transform="translate(47,55)"/>
<path d="M0 0 C3.13230255 0.68042527 4.33615496 1.79345555 6.0859375 4.453125 C8.40939735 10.6948781 9.2460904 17.01716474 10.2109375 23.578125 C10.39269531 24.73828125 10.57445312 25.8984375 10.76171875 27.09375 C13.69831927 46.83300462 13.69831927 46.83300462 10.0859375 52.703125 C6.80685927 54.61592063 4.86152503 55.01204519 1.1484375 55.01953125 C-1.97507522 54.1617484 -3.64122781 52.74483706 -5.9140625 50.453125 C-6.953125 47.484375 -6.953125 47.484375 -7.5390625 43.953125 C-7.64968018 43.31165527 -7.76029785 42.67018555 -7.87426758 42.00927734 C-8.24264208 39.82691009 -8.57776833 37.64065169 -8.9140625 35.453125 C-9.19572129 33.7472481 -9.47830639 32.04152394 -9.76171875 30.3359375 C-10.04372733 28.58366373 -10.32369798 26.83106068 -10.6015625 25.078125 C-10.73320801 24.25892578 -10.86485352 23.43972656 -11.00048828 22.59570312 C-13.24300164 7.6617111 -13.24300164 7.6617111 -9.9765625 2.890625 C-6.3695768 0.01975883 -4.49264427 -0.32836603 0 0 Z " fill="#000000" transform="translate(137.9140625,-0.453125)"/>
</svg>
