<?xml version="1.0" encoding="UTF-8"?>
<svg version="1.1" xmlns="http://www.w3.org/2000/svg" width="512" height="512">
<path d="M0 0 C13.95643784 11.92876372 25.06496926 29.51965133 27.33984375 47.97265625 C29.02845368 70.36428905 26.27311681 91.60444482 11.58984375 109.46875 C8.97860255 112.45653381 6.20230752 115.2255455 3.33984375 117.97265625 C2.66179687 118.64683594 1.98375 119.32101563 1.28515625 120.015625 C-14.84222543 135.17268703 -36.28260541 139.30451728 -57.67941284 139.23335266 C-58.92289777 139.23717821 -60.1663827 139.24100376 -61.44754899 139.24494523 C-64.85941499 139.25340962 -68.27106276 139.25306825 -71.68292189 139.24876463 C-75.3774879 139.24628007 -79.07202947 139.25533249 -82.7665863 139.26280212 C-89.98687153 139.2755001 -97.20711948 139.27734924 -104.42741399 139.27500186 C-110.2956598 139.27321426 -116.16389435 139.27497777 -122.03213882 139.2792263 C-122.86929085 139.27982149 -123.70644288 139.28041668 -124.56896315 139.28102991 C-126.26987409 139.28224171 -127.97078503 139.28345585 -129.67169596 139.28467228 C-145.59113755 139.29552737 -161.51055791 139.29339404 -177.43000068 139.28728744 C-191.99032274 139.28211114 -206.55057806 139.2933961 -221.11088692 139.31238566 C-236.07835285 139.33175615 -251.04578718 139.34002201 -266.01326573 139.3362624 C-274.40987609 139.33435031 -282.80642952 139.33683946 -291.20302963 139.35097694 C-298.34497166 139.36288109 -305.48682164 139.36430593 -312.62876491 139.35218678 C-316.27121161 139.3462934 -319.91348984 139.34521155 -323.55592537 139.35718918 C-327.50496782 139.37002437 -331.45375425 139.35959566 -335.40280151 139.34687805 C-337.12735134 139.35793948 -337.12735134 139.35793948 -338.88674057 139.36922437 C-346.53093054 139.3173224 -351.60364263 138.63049418 -357.53515625 133.47265625 C-361.01575607 129.37783294 -361.00515177 125.64064787 -360.9375 120.4765625 C-360.39601857 115.58797661 -357.8091093 113.00028456 -354.27545357 109.83976841 C-349.49268494 106.77261675 -343.92419398 107.42754404 -338.44039917 107.47386169 C-337.19825594 107.46847714 -335.95611271 107.46309259 -334.67632878 107.45754486 C-331.23525871 107.44657394 -327.79506119 107.45345211 -324.35405922 107.46782792 C-320.64017493 107.47895136 -316.92635783 107.4669458 -313.21247864 107.4576416 C-306.77754426 107.4445526 -300.34273979 107.44571447 -293.90780258 107.45623589 C-284.59093405 107.47118525 -275.27421766 107.4612528 -265.95735778 107.4447167 C-250.8237813 107.41825407 -235.69023897 107.40739672 -220.55664062 107.40844727 C-219.65104385 107.40850559 -218.74544708 107.40856391 -217.81240799 107.408624 C-214.14359039 107.40888982 -210.47477281 107.40920709 -206.80595522 107.40958726 C-196.71926917 107.41055259 -186.63258415 107.40922702 -176.54589844 107.40649414 C-175.64322597 107.40625425 -174.74055349 107.40601436 -173.81052731 107.40576719 C-158.74041728 107.40135514 -143.67033888 107.38509861 -128.6002475 107.36127335 C-119.31176734 107.34722642 -110.02340769 107.34430146 -100.73492344 107.35589624 C-94.36436261 107.36323897 -87.99386232 107.36013125 -81.62330727 107.3489378 C-77.95193558 107.34288597 -74.28073356 107.34171826 -70.60937309 107.35381508 C-66.62006021 107.36687983 -62.63113076 107.35665842 -58.64181519 107.34446716 C-57.49412277 107.35204322 -56.34643036 107.35961927 -55.16395938 107.36742491 C-40.55807328 107.27312527 -27.45752295 103.33505716 -16.6953125 93.19921875 C-13.28699985 89.47035463 -10.88820427 85.48970194 -8.66015625 80.97265625 C-8.24636719 80.16441406 -7.83257812 79.35617188 -7.40625 78.5234375 C-2.9702167 68.4303025 -3.09842027 55.95440033 -6.22265625 45.47265625 C-10.78877709 33.91366504 -18.94644019 24.4472304 -30.22265625 19.09765625 C-32.02269232 18.35822234 -33.83461257 17.64666117 -35.66015625 16.97265625 C-36.32660156 16.72644531 -36.99304688 16.48023438 -37.6796875 16.2265625 C-49.38510876 12.65332864 -61.71842644 15.01845232 -72.453125 20.36328125 C-77.12605777 23.04968738 -81.25357612 26.0908208 -85.1875 29.7734375 C-88.99411902 32.87325723 -94.03381171 32.38529762 -98.66015625 31.97265625 C-103.78311381 30.39636162 -106.17045994 27.68438042 -108.74609375 23.15625 C-110.67065092 18.55869675 -110.23625188 14.70094315 -108.66015625 9.97265625 C-99.36824105 -3.96521655 -82.95774134 -11.86562289 -67.09765625 -15.83984375 C-43.23921133 -20.4533552 -19.35589561 -14.75140943 0 0 Z " fill="#000000" transform="translate(484.66015625,106.02734375)"/>
<path d="M0 0 C0.93301483 -0.00367669 1.86602965 -0.00735338 2.82731766 -0.01114148 C5.97374601 -0.02221026 9.12014137 -0.0260277 12.2665863 -0.02983093 C14.51513271 -0.03609362 16.76367807 -0.04274025 19.01222229 -0.04974365 C26.41918716 -0.07082525 33.82615231 -0.08115594 41.23313904 -0.09111023 C43.78411813 -0.0951575 46.33509711 -0.09927442 48.88607597 -0.10346031 C59.50527057 -0.12034109 70.12446301 -0.13497115 80.74366856 -0.14220905 C83.50081954 -0.14411882 86.25797051 -0.14603916 89.01512146 -0.147995 C89.70036319 -0.14847874 90.38560492 -0.14896248 91.09161156 -0.14946087 C102.16044498 -0.15773836 113.22916951 -0.18303174 124.29795552 -0.21557567 C135.6784621 -0.24876098 147.05889423 -0.26633667 158.4394564 -0.26985329 C164.82227487 -0.2721971 171.20492172 -0.28106905 177.58769417 -0.30631447 C183.60496431 -0.32972679 189.62195151 -0.3337757 195.63925552 -0.32355309 C197.83649198 -0.32306066 200.03374297 -0.32929361 202.23093605 -0.34310913 C224.96334675 -0.47793061 244.28093108 2.87005527 262.10423279 18.14717102 C262.69333435 18.59318665 263.28243591 19.03920227 263.88938904 19.49873352 C277.78373134 30.32302753 286.93109308 48.87267298 289.10423279 66.14717102 C290.95943722 88.55982672 286.84116761 109.1512742 272.72923279 127.08467102 C259.7164701 141.89306195 241.76595121 153.95603187 221.47972107 155.32417297 C197.57770042 155.84631459 176.1023859 152.19248073 158.10423279 135.14717102 C154.15156485 131.07500382 151.9834285 127.66822097 151.79173279 121.89717102 C151.87729562 117.11343061 152.84222895 113.71325996 156.10423279 110.14717102 C159.93579285 107.08368867 163.89500011 105.78809535 168.79173279 105.77217102 C174.3478811 106.57321081 178.0170733 109.8290676 182.2184906 113.27070618 C191.9978576 121.25403829 202.74553646 124.39169753 215.39329529 124.06123352 C227.32054932 122.75532979 239.24611995 117.0356634 247.08079529 107.82295227 C255.6591076 95.52466093 258.32206848 83.97551123 257.10423279 69.14717102 C254.73955341 56.62576636 247.26678105 46.6030275 237.10423279 39.14717102 C228.27964352 33.76197912 219.83205242 31.83960825 209.61619568 31.89561462 C208.23008512 31.89115942 208.23008512 31.89115942 206.81597233 31.8866142 C203.73621381 31.87900843 200.65664795 31.88545414 197.57688904 31.89179993 C195.36211519 31.88904847 193.14734232 31.88536764 190.93257141 31.88082886 C186.17124599 31.87272969 181.4099675 31.87054515 176.64863586 31.87277603 C169.11825229 31.87561256 161.58796227 31.86124502 154.05760193 31.84379578 C143.49925657 31.82062007 132.94091572 31.80149272 122.3825531 31.78877258 C121.71329666 31.78796221 121.04404022 31.78715184 120.35450327 31.78631692 C110.85432291 31.77509231 101.35414841 31.76981307 91.8539623 31.76692979 C91.18470586 31.7667258 90.51544942 31.76652181 89.82591248 31.76631165 C88.82325849 31.76601174 88.82325849 31.76601174 87.80034888 31.76570578 C76.64453554 31.76196987 65.4887985 31.74263571 54.33302593 31.71121728 C46.84870145 31.69100106 39.36465072 31.68863396 31.88031006 31.69949746 C27.2232976 31.70210474 22.56644455 31.6881 17.90947342 31.66941643 C15.75200608 31.66409482 13.59450938 31.66559065 11.43705368 31.67445183 C8.48841152 31.68558486 5.54084649 31.67212734 2.5922699 31.6526947 C1.74167527 31.66181936 0.89108065 31.67094402 0.01471043 31.68034518 C-7.03814255 31.59009789 -12.42028381 29.68454151 -17.39576721 24.58467102 C-19.52095641 19.71444577 -19.55224479 15.38297999 -18.89576721 10.14717102 C-15.33507295 1.33913784 -8.54144949 -0.00178664 0 0 Z " fill="#000000" transform="translate(18.895767211914063,281.8528289794922)"/>
<path d="M0 0 C0.89899796 -0.00384115 1.79799592 -0.00768229 2.72423625 -0.01163983 C3.71818251 -0.01077335 4.71212877 -0.00990687 5.73619461 -0.00901413 C6.78722657 -0.01198525 7.83825854 -0.01495637 8.92113996 -0.01801753 C12.46637198 -0.02673508 16.01157037 -0.02821536 19.55681229 -0.02970505 C22.08921252 -0.03433108 24.62161206 -0.03935544 27.15401077 -0.04475021 C34.05076973 -0.05789736 40.94751755 -0.06436018 47.84428692 -0.06876087 C52.14968044 -0.07152176 56.45507171 -0.07575887 60.76046371 -0.08026505 C72.67758798 -0.09245987 84.59471045 -0.10275831 96.51184082 -0.10614014 C97.65643695 -0.10646949 97.65643695 -0.10646949 98.82415624 -0.10680549 C99.97151768 -0.10713291 99.97151768 -0.10713291 101.14205813 -0.10746694 C102.69209337 -0.1079104 104.24212861 -0.10835697 105.79216385 -0.10880661 C106.56103759 -0.10902804 107.32991134 -0.10924947 108.12208429 -0.10947761 C120.57892727 -0.1134251 133.03571173 -0.13087665 145.4925321 -0.15416613 C158.27758703 -0.17787657 171.0626126 -0.19034187 183.84768987 -0.19150805 C191.0276872 -0.19242506 198.20760833 -0.19818373 205.38758469 -0.21632767 C212.14102199 -0.23333333 218.89428989 -0.23498356 225.64775085 -0.22618866 C228.12857449 -0.2254161 230.60940579 -0.22978971 233.09020996 -0.23964691 C236.47319263 -0.25230194 239.85565736 -0.2465243 243.23863602 -0.23606491 C244.22365939 -0.24412132 245.20868276 -0.25217772 246.22355533 -0.26047826 C251.47092885 -0.22245509 255.24005516 0.12006432 259.7413826 3.13142776 C263.8616121 8.47659037 265.19825314 12.39258736 264.7413826 19.13142776 C262.84879518 24.38861503 260.17934716 26.96145308 255.7413826 30.13142776 C252.8948552 31.06561578 250.30477374 31.257978 247.32034302 31.26285553 C245.99384849 31.26861725 245.99384849 31.26861725 244.6405561 31.27449536 C243.6732545 31.27362888 242.70595291 31.2727624 241.70933914 31.27186966 C240.16297126 31.27632634 240.16297126 31.27632634 238.58536363 31.28087306 C235.12010919 31.28956637 231.65488927 31.29106885 228.18962479 31.29256058 C225.70943503 31.29718829 223.22924598 31.30221289 220.74905777 31.30760574 C214.00310354 31.32073603 207.25716284 31.32721261 200.511199 31.3316164 C196.29790941 31.33438016 192.08462211 31.33861777 187.87133408 31.34312057 C176.20290521 31.35531233 164.53447818 31.36561177 152.86604309 31.36899567 C152.11939042 31.36921523 151.37273776 31.3694348 150.60345925 31.36966102 C149.85503349 31.3698793 149.10660772 31.37009757 148.33550239 31.37032247 C146.81894032 31.37076593 145.30237826 31.37121249 143.78581619 31.37166214 C143.03355114 31.37188357 142.2812861 31.372105 141.50622514 31.37233314 C129.31922069 31.37628042 117.13227606 31.39373272 104.94529471 31.41702166 C92.42910971 31.44074637 79.91295472 31.45319803 67.39674687 31.45436358 C60.37097493 31.45527973 53.34528093 31.46101664 46.31953049 31.4791832 C39.71053321 31.49621208 33.10165767 31.49782842 26.49263573 31.48904419 C24.06747733 31.48827282 21.64231104 31.49262968 19.21717262 31.50250244 C15.90505867 31.51519487 12.5934709 31.50935937 9.28136063 31.49892044 C7.84379256 31.51100505 7.84379256 31.51100505 6.37718272 31.52333379 C0.48555903 31.47994243 -3.90072715 30.64227206 -9.2586174 28.13142776 C-14.08079654 23.06195739 -14.55337291 19.62811894 -14.47346115 12.82674026 C-14.09057087 8.02320766 -12.21531598 5.97145579 -8.6961174 2.88142776 C-5.47953137 0.57208394 -3.89130865 0.00622075 0 0 Z " fill="#000000" transform="translate(14.258617401123047,145.86857223510742)"/>
<path d="M0 0 C1.27450264 -0.00810448 1.27450264 -0.00810448 2.57475281 -0.01637268 C5.37424951 -0.02884344 8.1727138 -0.01237166 10.97216797 0.00561523 C12.93024753 0.00546012 14.88832741 0.00396911 16.84640503 0.00120544 C20.9503131 -0.00017811 25.05387154 0.01236557 29.15771484 0.03515625 C34.38938251 0.06342787 39.62046455 0.06083355 44.85217476 0.04806614 C48.89825333 0.04106904 52.94419943 0.04894586 56.99026108 0.06132317 C58.91735194 0.06580659 60.84445719 0.06620198 62.77154922 0.06225777 C81.80839558 0.04154595 97.97064985 2.65353696 112.34716797 16.34545898 C124.97339097 30.01148858 128.99694166 45.16909987 128.65185547 63.28295898 C127.9875064 78.6737123 120.21540652 91.03108609 109.33935547 101.50170898 C96.62697516 112.23104146 81.7048464 116.40766018 65.27099609 115.22827148 C52.01174128 113.95944327 38.66254853 108.06790914 29.60888672 98.11108398 C26.3145732 93.93490808 25.89362156 89.90299642 26.02294922 84.71264648 C26.68067445 80.11668991 29.46923967 77.39599466 32.58935547 74.18920898 C36.73952763 71.64251243 40.62923106 70.95442173 45.35107422 71.90795898 C49.19813808 73.1777168 52.11342029 74.98975353 55.27685547 77.50170898 C60.79885183 81.8181233 66.21762197 83.86627034 73.27685547 83.50170898 C80.75039231 82.39753169 87.1433017 79.53135083 91.83935547 73.50170898 C96.71058655 66.47807348 97.11512803 59.87607437 96.33935547 51.50170898 C94.64347014 44.35323034 90.41399204 39.49627409 84.33935547 35.50170898 C79.10187463 32.86389631 74.84426762 32.07207254 68.96069336 32.1328125 C68.15322159 32.12904602 67.34574982 32.12527954 66.5138092 32.12139893 C64.77165445 32.11499486 63.02946472 32.11526966 61.28730965 32.12158394 C58.52451038 32.13073951 55.76238325 32.1204197 52.99961853 32.10496521 C45.14876271 32.06498823 37.29796222 32.06366135 29.44702148 32.06591797 C24.63422386 32.0659692 19.82179012 32.0467398 15.00909233 32.0165844 C12.29692008 32.00580368 9.58545534 32.01786211 6.87330627 32.03041077 C5.19800124 32.02150137 3.52270187 32.01142525 1.84741211 32 C1.10170959 32.0097435 0.35600708 32.019487 -0.41229248 32.02952576 C-5.84060618 31.95606108 -10.15619821 30.59140749 -14.66064453 27.50170898 C-18.57963729 23.13512003 -19.30628762 18.63850209 -19.04345703 12.86499023 C-18.25555674 8.00091189 -15.75420608 5.39626719 -12.05349731 2.3690033 C-7.79443439 0.02498059 -4.76989559 -0.05824159 0 0 Z " fill="#000000" transform="translate(346.66064453125,281.498291015625)"/>
<path d="M0 0 C1.23095901 -0.0071553 2.46191803 -0.01431061 3.73017883 -0.02168274 C5.10183691 -0.02452314 6.47349525 -0.02723485 7.84515381 -0.02983093 C9.28397283 -0.0360947 10.72279022 -0.04274142 12.16160583 -0.04974365 C16.07704901 -0.06716255 19.99247997 -0.07770806 23.90795231 -0.08594918 C26.3539889 -0.09109799 28.80002169 -0.09717381 31.2460556 -0.10346031 C38.89842837 -0.12251581 46.55079147 -0.13674557 54.20318341 -0.14507228 C63.03769561 -0.15484377 71.87195719 -0.18115932 80.70638108 -0.22157317 C87.53363707 -0.2517335 94.36082122 -0.26654111 101.18814254 -0.26985329 C105.2662503 -0.2722041 109.34409045 -0.28116797 113.42212677 -0.30631447 C117.26025023 -0.32959865 121.09792994 -0.33382728 124.93610573 -0.32355309 C126.34297728 -0.32305767 127.74987069 -0.32937982 129.15667534 -0.34310913 C142.32257436 -0.46438322 142.32257436 -0.46438322 147.21917725 4.14717102 C150.7649876 8.18205867 151.52277903 11.71378511 151.434021 17.08857727 C150.9572475 21.65693419 148.99354839 24.44834828 145.65667725 27.45967102 C141.92106566 30.04586366 139.96917142 30.27632035 135.43835449 30.29434204 C133.59191597 30.305075 133.59191597 30.305075 131.70817566 30.31602478 C130.33651759 30.31886518 128.96485924 30.32157689 127.59320068 30.32417297 C126.15438167 30.33043674 124.71556427 30.33708346 123.27674866 30.34408569 C119.36130548 30.36150459 115.44587452 30.3720501 111.53040218 30.38029122 C109.08436559 30.38544003 106.6383328 30.39151585 104.19229889 30.39780235 C96.53992612 30.41685785 88.88756302 30.43108761 81.23517108 30.43941432 C72.40065888 30.44918581 63.5663973 30.47550136 54.73197341 30.51591522 C47.90471742 30.54607555 41.07753327 30.56088315 34.25021195 30.56419533 C30.17210419 30.56654614 26.09426404 30.57551001 22.01622772 30.60065651 C18.17810426 30.62394069 14.34042455 30.62816932 10.50224876 30.61789513 C9.09537721 30.61739972 7.6884838 30.62372186 6.28167915 30.63745117 C-6.88421987 30.75872526 -6.88421987 30.75872526 -11.78082275 26.14717102 C-15.32663311 22.11228337 -16.08442454 18.58055693 -15.9956665 13.20576477 C-15.51889301 8.63740785 -13.5551939 5.84599376 -10.21832275 2.83467102 C-6.48271117 0.24847838 -4.53081693 0.01802169 0 0 Z " fill="#000000" transform="translate(183.78082275390625,74.85282897949219)"/>
<path d="M0 0 C1.26779297 -0.02900391 2.53558594 -0.05800781 3.84179688 -0.08789062 C10.86781146 -0.13568664 15.67705801 -0.06972318 21.3125 4.3125 C24.75787433 8.33210339 25.58950451 13.11866553 25.3125 18.3125 C23.99482687 22.99023962 22.04951875 25.72589324 18.25 28.75 C12.50012841 31.80844234 7.43593954 31.53090922 1.0625 31.5625 C0.03769531 31.583125 -0.98710938 31.60375 -2.04296875 31.625 C-8.74811818 31.65951814 -14.18380556 31.39983613 -19.4296875 26.77734375 C-23.50159194 21.28729328 -24.3149469 18.07751842 -23.6875 11.3125 C-19.4713605 -0.44831019 -10.75909367 0.08081442 0 0 Z " fill="#000000" transform="translate(69.6875,213.6875)"/>
</svg>
